<?xml version="1.0" encoding="utf-8" standalone="no" ?>
<!--Generated by Edraw, SVGExporter, v1.0-->
<svg version="1.1" xmlns="http://www.w3.org/2000/svg" xmlns:xlink="http://www.w3.org/1999/xlink" xmlns:ed="http://www.edrawsoft.com/schema/svg" ed:version="version 5" viewBox="0 0 1188 840">
    <style type="text/css">
        <![CDATA[
            .st1 {fill:#A79D82;stroke:none; stroke-width:0.625; }
            .st2 {fill:#5C69A0;stroke:none; stroke-width:0.46875; }
            .st3 {fill:url(#grad1);stroke:none; stroke-width:0.46875; }
            .st4 {fill:#1F396C;stroke:none; stroke-width:0.46875; }
            .st5 {fill:#00333E;stroke:none; stroke-width:0.625; }
            .st6 {fill:#EAEAEC;stroke:none; stroke-width:0.625; }
        ]]>

    </style>
    <defs id="Gradients">
        <linearGradient id="grad1" gradientUnits="userSpaceOnUse" x1="170.00" y1="0.00" x2="0.00" y2="0.00">
            <stop offset="0.00" stop-color="#5C69A0" stop-opacity="1.00" />
            <stop offset="1.00" stop-color="#9CA7CE" stop-opacity="1.00" />
        </linearGradient>
    </defs>
    <defs id="Markers" />
    <defs id="Filters" />
    <g>
        <title>Layer-1</title>
        <g id="203" transform="translate(340.00,320.00)">
            <g id="204" transform="translate(-0.51,-0.44)">
                <g id="205" transform="translate(9.05,6.88)">
                    <path d="M153.95,0.14 L169.07,0.00 L169.07,40.47 L126.56,84.97 L0.00,84.97 L0.00,73.06 L153.95,0.14 z" class="st1" />
                </g>
                <g id="206" transform="translate(0.82,41.27)">
                    <path d="M-0.16,0.46 L125.22,0.05 L125.22,43.20 L0.00,43.20 L-0.16,0.46 z" class="st2" />
                </g>
                <g id="207" transform="translate(0.75,0.74)">
                    <path d="M50.69,0.43 L168.42,0.00 L125.42,41.15 L0.00,41.15 L50.69,0.43 z" class="st3" />
                </g>
                <g id="208" transform="translate(125.84,0.58)">
                    <path d="M-0.10,41.15 L43.14,0.00 L43.08,40.88 L-0.18,83.95 L-0.10,41.15 z" class="st4" />
                </g>
            </g>
            <g id="211" transform="translate(39.11,14.43) translate(99.28,0) scale(-1,1) translate(0,11.12) scale(1,-1)">
                <path d="M99.28,4.68 L96.05,7.60 L29.68,7.58 L24.65,11.14 L0.00,5.35 L41.48,-0.04 L34.56,4.54 L99.28,4.68 z" class="st5" />
            </g>
            <g id="212" transform="translate(40.66,16.03) translate(93.02,0) scale(-1,1) translate(0,9.04) scale(1,-1)">
                <path d="M93.02,3.53 L89.71,6.30 L24.10,6.20 L19.65,9.08 L0.00,4.45 L33.95,0.00 L27.66,3.53 L93.02,3.53 z" class="st6" />
            </g>
        </g>
    </g>
</svg>
