<?xml version="1.0" encoding="utf-8" standalone="no" ?>
<!--Generated by Edraw, SVGExporter, v1.0-->
<svg version="1.1" xmlns="http://www.w3.org/2000/svg" xmlns:xlink="http://www.w3.org/1999/xlink" xmlns:ed="http://www.edrawsoft.com/schema/svg" ed:version="version 5" viewBox="0 0 1188 840">
    <style type="text/css">
        <![CDATA[
            .st1 {fill:#A79D82;stroke:none; stroke-width:0.46875; }
            .st2 {fill:#5C69A0;stroke:none; stroke-width:0.46875; }
            .st3 {fill:url(#grad1);stroke:none; stroke-width:0.46875; }
            .st4 {fill:#1F396C;stroke:none; stroke-width:0.46875; }
            .st5 {fill:#1D386D;stroke:none; stroke-width:0.625; }
            .st6 {fill:#000000;stroke:none; stroke-width:0.625; }
            .st7 {fill:url(#grad2);stroke:none; stroke-width:0.625; }
            .st8 {fill:#FFFFFF;stroke:none; stroke-width:0.625; }
        ]]>

    </style>
    <defs id="Gradients">
        <linearGradient id="grad1" gradientUnits="userSpaceOnUse" x1="183.00" y1="-1.00" x2="0.00" y2="-1.00">
            <stop offset="0.00" stop-color="#5C69A0" stop-opacity="1.00" />
            <stop offset="1.00" stop-color="#9CA7CE" stop-opacity="1.00" />
        </linearGradient>
        <linearGradient id="grad2" gradientUnits="userSpaceOnUse" x1="0.00" y1="0.00" x2="144.00" y2="0.00">
            <stop offset="0.00" stop-color="#EBECDE" stop-opacity="1.00" />
            <stop offset="1.00" stop-color="#A89B8A" stop-opacity="1.00" />
        </linearGradient>
    </defs>
    <defs id="Markers" />
    <defs id="Filters" />
    <g>
        <title>Layer-1</title>
        <g id="305" transform="translate(295.83,328.95)">
            <g id="306" transform="translate(6.95,30.04)">
                <path d="M0.00,0.00 L165.03,0.00 L165.03,50.91 L0.00,50.91 L0.00,0.00 z" class="st1" />
            </g>
            <g id="307" transform="translate(6.41,6.98)">
                <path d="M27.87,0.00 L181.79,1.24 L164.03,23.25 L0.00,23.25 L27.87,0.00 z" class="st1" />
            </g>
            <g id="308" transform="translate(170.32,7.93)">
                <path d="M0.12,22.12 L17.88,0.11 L17.88,43.31 L1.28,73.03 L0.12,22.12 z" class="st1" />
            </g>
            <g id="309" transform="translate(-0.37,-1.63)">
                <path d="M0.00,23.36 L55.18,2.80 L164.79,23.36 L164.79,74.32 L0.00,74.32 L0.00,23.36 z" class="st2" />
            </g>
            <g id="310" transform="translate(-0.47,-0.42)">
                <path d="M26.99,0.13 L181.48,-0.10 L163.77,22.55 L0.00,22.47 L26.99,0.13 z" class="st3" />
            </g>
            <g id="311" transform="translate(163.31,-0.63)">
                <path d="M0.00,22.24 L17.70,0.11 L17.65,46.22 L1.19,73.31 L0.00,22.24 z" class="st4" />
            </g>
            <g id="312" transform="translate(45.92,33.59)">
                <path d="M0.05,0.05 C3.33,-0.14 6.11,0.85 7.77,1.98 C12.01,4.87 13.94,11.05 15.49,14.14 C17.03,17.22 20.31,24.75 24.75,25.33 C19.93,27.44 14.82,16.93 13.56,15.10 C10.42,10.61 9.31,5.00 7.00,3.52 C5.77,2.74 1.98,0.82 0.05,0.05 z" class="st5" />
            </g>
            <g id="313" transform="translate(23.00,33.87)">
                <path d="M-0.10,0.05 C3.18,-0.14 5.54,1.82 7.19,2.94 C11.43,5.84 14.14,11.82 15.68,14.91 C17.22,18.00 20.31,23.98 24.75,25.92 C19.93,28.03 14.77,18.46 13.51,16.63 C10.37,12.14 8.73,5.97 6.42,4.49 C5.19,3.70 1.83,0.83 -0.10,0.05 z" class="st6" />
            </g>
            <g id="314" transform="translate(116.58,34.71)">
                <path d="M0.00,-0.34 C3.30,-0.53 5.65,1.42 7.30,2.55 C11.55,5.44 14.25,11.43 15.80,14.51 C17.34,17.60 20.38,22.90 24.82,24.84 C19.99,26.95 14.89,18.06 13.62,16.24 C10.48,11.75 8.85,5.57 6.53,4.09 C5.31,3.31 1.95,0.43 0.00,-0.34 z" class="st6" />
            </g>
            <g id="315" transform="translate(70.69,34.78)">
                <path d="M0.00,0.00 C3.26,-0.18 5.61,1.78 7.27,2.90 C11.51,5.80 13.28,12.27 14.82,15.36 C16.37,18.44 20.39,23.94 24.83,25.88 C20.00,27.99 13.77,19.03 12.51,17.21 C9.36,12.72 8.81,5.93 6.49,4.45 C5.27,3.66 1.91,0.79 0.00,0.00 z" class="st6" />
            </g>
            <g id="316" transform="translate(140.90,33.68)">
                <path d="M-0.03,0.06 C3.25,-0.13 6.04,0.86 7.69,1.99 C11.94,4.88 12.93,12.91 13.32,16.38 C7.33,20.63 10.92,14.14 10.92,14.14 C10.92,14.14 9.23,5.01 6.92,3.53 C5.69,2.75 1.90,0.83 -0.03,0.06 z" class="st5" />
            </g>
            <g id="317" transform="translate(93.54,33.50)">
                <path d="M0.05,0.05 C3.33,-0.14 5.68,1.42 7.33,2.55 C11.58,5.45 13.32,11.43 14.86,14.52 C16.40,17.60 18.14,25.13 22.58,25.71 C17.75,27.82 13.61,16.92 12.35,15.09 C9.21,10.60 9.31,5.00 7.00,3.52 C5.77,2.74 1.98,0.82 0.05,0.05 z" class="st5" />
            </g>
            <g id="318" transform="translate(12.76,46.22)">
                <path d="M2.09,0.45 C3.63,3.54 6.14,11.25 10.58,11.83 C2.35,16.57 1.18,4.00 -0.08,2.17 C0.69,2.18 1.65,1.41 2.09,0.45 z" class="st5" />
            </g>
            <g id="319" transform="translate(23.68,35.82) translate(24.70,0) scale(-1,1)">
                <path d="M0.05,0.05 C3.33,-0.14 6.11,0.85 7.77,1.98 C12.01,4.87 13.94,11.05 15.49,14.14 C17.03,17.22 20.31,24.75 24.75,25.33 C19.93,27.44 14.82,19.04 13.56,17.21 C10.42,12.72 8.88,6.60 6.21,4.31 C3.36,1.87 1.98,0.82 0.05,0.05 z" class="st5" />
            </g>
            <g id="320" transform="translate(69.22,37.11) translate(25.94,0) scale(-1,1)">
                <path d="M0.00,0.03 C3.28,-0.14 5.03,0.40 6.69,1.53 C10.93,4.42 12.86,10.60 14.41,13.69 C15.95,16.78 19.95,23.32 25.94,23.99 C16.48,26.99 13.27,16.72 12.48,14.65 C10.19,8.70 8.34,4.08 6.02,2.60 C4.79,1.82 2.32,0.44 0.00,0.03 z" class="st5" />
            </g>
            <g id="321" transform="translate(140.36,48.33) translate(13.74,0) scale(-1,1)">
                <path d="M3.44,0.07 C4.99,3.15 9.37,12.22 13.79,14.15 C6.09,14.93 1.36,7.05 0.05,1.88 C1.98,1.21 1.66,1.23 3.44,0.07 z" class="st6" />
            </g>
            <g id="322" transform="translate(117.50,37.01) translate(25.01,0) scale(-1,1)">
                <path d="M0.04,0.54 C3.28,-0.70 5.30,0.43 6.96,1.55 C11.20,4.45 13.13,10.62 14.68,13.71 C16.22,16.80 20.64,23.19 25.08,23.76 C20.25,25.88 13.37,16.81 12.75,14.68 C11.23,9.49 8.87,5.85 7.06,3.78 C5.52,2.00 4.82,1.46 0.04,0.54 z" class="st5" />
            </g>
            <g id="323" transform="translate(45.47,37.10) translate(25.55,0) scale(-1,1)">
                <path d="M-0.42,0.00 C2.77,-0.67 5.21,1.76 6.87,2.89 C11.11,5.79 12.80,13.03 14.35,16.12 C15.89,19.20 20.65,23.28 25.11,25.23 C20.26,27.34 12.71,19.29 11.45,17.47 C8.31,12.98 10.49,6.47 -0.42,0.00 z" class="st6" />
            </g>
            <g id="324" transform="translate(94.12,37.17) translate(25.63,0) scale(-1,1)">
                <path d="M0.04,0.69 C3.16,-0.60 7.57,0.25 9.22,1.38 C13.47,4.28 14.87,11.51 16.41,14.59 C17.96,17.68 21.19,22.98 25.63,24.96 C17.91,25.70 14.26,18.43 13.47,16.36 C10.46,8.48 12.00,9.80 8.68,4.62 C5.38,-0.52 3.20,1.54 0.04,0.69 z" class="st6" />
            </g>
            <g id="325" transform="translate(11.44,37.18) translate(12.53,0) scale(-1,1)">
                <path d="M0.00,0.10 C3.29,-0.10 5.96,-0.07 7.86,0.99 C12.34,3.51 10.29,9.33 12.41,12.41 C13.29,13.70 8.59,8.96 9.02,9.94 C8.63,6.24 8.24,4.15 5.85,2.46 C3.12,0.52 1.93,0.87 0.00,0.10 z" class="st6" />
            </g>
            <g id="326" transform="translate(10.33,33.68)">
                <path d="M0.00,12.78 C0.42,10.85 2.47,-0.53 12.58,0.00 C18.93,0.47 22.91,7.09 24.55,10.66 C26.19,14.23 30.41,23.17 35.59,24.09 C39.37,24.77 44.81,19.15 46.64,13.65 C48.48,8.15 53.05,1.04 59.48,0.63 C68.55,0.00 71.25,10.28 72.79,14.71 C74.34,19.15 78.43,24.71 83.45,24.32 C87.46,24.02 92.59,15.41 94.33,10.97 C96.07,6.53 99.62,0.43 106.76,0.63 C113.36,0.81 119.17,9.68 120.42,13.83 C121.68,17.98 126.44,24.94 130.69,24.94 C135.09,24.94 138.79,17.38 138.87,15.37 C138.94,13.59 141.82,12.71 142.06,15.14 C142.34,17.99 139.56,28.61 130.69,28.76 C123.89,29.29 118.41,19.54 118.41,18.77 C115.71,12.40 113.68,4.73 106.37,4.10 C98.34,3.41 97.69,14.41 94.41,18.84 C93.83,22.32 88.80,28.25 83.02,28.61 C76.85,28.76 71.48,22.01 69.13,16.07 C66.81,11.05 66.81,4.62 60.06,4.25 C52.92,3.87 49.44,15.87 47.71,19.35 C46.74,22.63 41.14,28.84 35.74,28.26 C31.42,27.80 26.14,25.76 22.62,16.26 C19.10,6.75 16.75,3.33 11.62,3.52 C5.06,3.77 3.86,9.58 3.71,12.67 C3.52,16.38 0.23,12.40 0.00,12.78 z" class="st7" />
            </g>
            <g id="327" transform="translate(10.24,33.18) translate(0,28.80) scale(1,-1)">
                <path d="M0.00,14.01 C0.77,10.07 3.58,0.76 12.07,0.00 C18.42,-0.25 22.14,6.96 23.78,10.53 C25.42,14.10 28.87,24.12 35.82,24.74 C39.65,25.08 44.30,19.09 46.13,13.59 C47.96,8.09 52.54,0.98 58.96,0.57 C68.04,0.00 71.25,10.18 72.80,14.62 C74.34,19.06 77.66,25.04 83.09,24.50 C87.10,24.09 91.77,16.78 93.51,12.34 C95.25,7.90 99.11,0.37 106.25,0.57 C112.85,0.75 118.40,9.86 119.65,14.01 C120.91,18.15 125.21,25.51 130.18,24.88 C134.54,24.33 138.71,15.09 138.64,13.31 C138.49,9.22 139.25,9.91 141.81,13.08 C143.37,15.01 139.05,28.55 130.18,28.80 C123.38,29.23 117.44,19.09 117.44,18.32 C114.74,11.95 112.01,3.97 104.91,4.43 C99.72,4.77 97.27,15.16 95.10,19.10 C91.55,23.42 91.01,27.59 82.51,28.55 C76.37,29.24 69.00,17.55 68.61,16.01 C66.30,10.99 66.66,4.95 59.90,4.59 C52.76,4.20 49.29,15.70 47.55,19.18 C46.59,22.46 42.56,28.80 35.23,28.55 C30.89,28.32 25.37,25.75 21.85,16.24 C18.33,6.74 17.58,4.67 12.35,4.28 C8.26,3.97 5.10,10.22 4.02,14.78 C3.03,18.94 0.31,13.62 0.00,14.01 z" class="st7" />
            </g>
            <g id="328" transform="translate(127.72,33.21)">
                <path d="M13.66,0.02 C7.04,-0.52 1.57,4.90 0.03,9.43 C0.36,9.65 0.91,9.54 1.13,10.45 C2.23,6.56 6.40,1.40 13.66,0.02 z" class="st8" />
            </g>
            <g id="329" transform="translate(10.27,33.91)">
                <path d="M13.28,0.00 C7.44,-0.26 -0.18,2.56 -0.03,14.14 C0.59,14.07 0.67,14.29 1.13,14.06 C1.44,7.35 3.99,1.56 13.28,0.00 z" class="st8" />
            </g>
            <g id="330" transform="translate(33.03,33.38)">
                <path d="M14.61,0.09 C6.27,-1.14 1.69,5.36 0.14,9.89 C-0.42,10.07 0.84,9.96 1.38,10.35 C2.48,6.46 6.65,1.02 14.61,0.09 z" class="st8" />
            </g>
            <g id="331" transform="translate(58.34,34.02)">
                <path d="M12.81,0.37 C6.71,-0.25 1.61,5.65 0.07,10.17 C1.23,10.87 0.62,10.19 0.84,11.10 C1.94,7.22 5.53,1.75 12.81,0.37 z" class="st8" />
            </g>
            <g id="332" transform="translate(80.91,33.42)">
                <path d="M12.93,0.03 C6.91,-0.66 1.35,4.31 -0.19,8.84 C0.63,10.10 0.05,9.01 0.27,9.92 C1.37,6.03 5.65,1.41 12.93,0.03 z" class="st8" />
            </g>
            <g id="333" transform="translate(105.31,34.73)">
                <path d="M12.47,-0.41 C3.77,-0.71 1.51,3.78 -0.04,8.31 C0.29,8.53 0.90,8.07 1.12,9.00 C1.74,4.29 5.08,0.99 12.47,-0.41 z" class="st8" />
            </g>
            <g id="334" transform="translate(139.88,48.90) translate(10.19,0) scale(-1,1) translate(0,9.74) scale(1,-1)">
                <path d="M10.61,0.21 C5.01,-0.95 1.96,4.06 0.42,8.58 C1.05,9.19 0.81,8.90 1.03,9.82 C2.14,5.93 4.04,0.01 10.61,0.21 z" class="st8" />
            </g>
            <g id="335" transform="translate(21.27,47.22) translate(11.39,0) scale(-1,1) translate(0,11.49) scale(1,-1)">
                <path d="M11.30,0.20 C5.70,-0.96 1.54,6.04 0.00,10.56 C0.33,10.78 0.88,10.67 1.10,11.58 C2.21,7.69 4.74,0.00 11.30,0.20 z" class="st8" />
            </g>
            <g id="336" transform="translate(45.12,48.75) translate(12.20,0) scale(-1,1) translate(0,10.86) scale(1,-1)">
                <path d="M12.18,0.14 C6.58,-1.02 2.22,5.92 -0.04,9.91 C0.29,10.13 0.84,10.02 1.06,10.92 C3.45,7.24 5.54,0.60 12.18,0.14 z" class="st8" />
            </g>
            <g id="337" transform="translate(69.24,47.08) translate(10.96,0) scale(-1,1) translate(0,10.81) scale(1,-1)">
                <path d="M11.52,0.58 C5.92,-0.58 2.05,4.83 0.50,9.35 C0.83,9.57 1.25,10.38 1.87,11.23 C2.97,7.34 4.96,0.38 11.52,0.58 z" class="st8" />
            </g>
            <g id="338" transform="translate(92.36,48.47) translate(11.66,0) scale(-1,1) translate(0,9.73) scale(1,-1)">
                <path d="M11.64,0.15 C6.04,-1.01 2.45,4.74 -0.04,8.69 C0.29,8.91 0.84,8.80 1.06,9.71 C3.45,5.98 6.31,0.34 11.64,0.15 z" class="st8" />
            </g>
            <g id="339" transform="translate(115.14,46.67) translate(12.43,0) scale(-1,1) translate(0,11.09) scale(1,-1)">
                <path d="M12.41,0.13 C6.81,-1.02 1.51,5.74 -0.04,10.26 C0.29,10.48 1.04,10.14 1.26,11.05 C2.68,7.16 5.85,-0.06 12.41,0.13 z" class="st8" />
            </g>
        </g>
    </g>
</svg>
