<?xml version="1.0" encoding="utf-8" standalone="no" ?>
<!--Generated by Edraw, SVGExporter, v1.0-->
<svg version="1.1" xmlns="http://www.w3.org/2000/svg" xmlns:xlink="http://www.w3.org/1999/xlink" xmlns:ed="http://www.edrawsoft.com/schema/svg" ed:version="version 5" viewBox="0 0 1188 840">
    <style type="text/css">
        <![CDATA[
            .st1 {fill:none;stroke:#3C5C74; stroke-width:1; stroke-linejoin:bevel; }
            .st2 {fill:#5C69A0;stroke:#5C69A0; stroke-width:0.183106; }
            .st3 {fill:url(#grad1);stroke:none; stroke-width:0.625; }
            .st4 {fill:#1F396C;stroke:#5C69A0; stroke-width:0.183106; }
        ]]>

    </style>
    <defs id="Gradients">
        <linearGradient id="grad1" gradientUnits="userSpaceOnUse" x1="121.00" y1="0.00" x2="0.00" y2="0.00">
            <stop offset="0.00" stop-color="#5C69A0" stop-opacity="1.00" />
            <stop offset="1.00" stop-color="#9CA7CE" stop-opacity="1.00" />
        </linearGradient>
    </defs>
    <defs id="Markers" />
    <defs id="Filters">
        <filter id="fltr1">
            <feGaussianBlur in="SourceAlpha" stdDeviation="3" result="blur" />
        </filter>
    </defs>
    <g>
        <title>Layer-1</title>
        <g ed:type="shadow" transform="translate(402,444) translate(-400,-442) translate(340.00,358.00)" filter="url(#fltr1)">
            <g transform="translate(0.00,14.00)">
                <path d="M0.00,2.36 L0.00,70.00 L104.12,70.00 L104.12,0.00 C104.12,0.00 83.13,16.73 51.64,16.73 C20.16,16.73 0.55,2.36 0.00,2.36 z" style="fill:#000000; fill-rule:nonzero;fill-opacity:0.4; stroke:none;" />
            </g>
            <g transform="">
                <path d="M0.00,16.36 L19.35,0.00 C19.35,0.00 37.03,17.26 62.92,19.67 C88.82,22.09 120.00,0.00 120.00,0.00 L104.22,15.10 C104.22,15.10 82.69,31.50 52.06,31.50 C21.44,31.50 0.00,16.36 0.00,16.36 z" style="fill:#000000; fill-rule:nonzero;fill-opacity:0.4; stroke:none;" />
            </g>
            <g transform="translate(104.12,0.00)">
                <path d="M0.00,15.12 L15.88,0.00 L15.88,69.72 L0.00,84.00 z" style="fill:#000000; fill-rule:nonzero;fill-opacity:0.4; stroke:none;" />
            </g>
        </g>
        <g id="195" transform="translate(340.00,358.00)">
            <g id="196" transform="translate(0.00,14.00)">
                <path d="M0.00,2.36 L0.00,70.00 L104.12,70.00 L104.12,0.00 C104.12,0.00 83.13,16.73 51.64,16.73 C20.16,16.73 0.55,2.36 0.00,2.36 z" class="st2" />
            </g>
            <g id="197">
                <path d="M0.00,16.36 L19.35,0.00 C19.35,0.00 37.03,17.26 62.92,19.67 C88.82,22.09 120.00,0.00 120.00,0.00 L104.22,15.10 C104.22,15.10 82.69,31.50 52.06,31.50 C21.44,31.50 0.00,16.36 0.00,16.36 z" class="st3" />
            </g>
            <g id="198" transform="translate(104.12,0.00)">
                <path d="M0.00,15.12 L15.88,0.00 L15.88,69.72 L0.00,84.00 z" class="st4" />
            </g>
        </g>
    </g>
</svg>
