<?xml version="1.0" encoding="utf-8" standalone="no" ?>
<!--Generated by Edraw, SVGExporter, v1.0-->
<svg version="1.1" xmlns="http://www.w3.org/2000/svg" xmlns:xlink="http://www.w3.org/1999/xlink" xmlns:ed="http://www.edrawsoft.com/schema/svg" ed:version="version 5" viewBox="0 0 1188 840">
    <style type="text/css">
        <![CDATA[
            .st1 {fill:#5C69A0;stroke:none; stroke-width:0.625; }
            .st2 {fill:url(#grad1);stroke:none; stroke-width:0.625; }
            .st3 {fill:#1F396C;stroke:none; stroke-width:0.46875; }
            .st4 {fill:#1D386D;stroke:none; stroke-width:0.625; }
            .st5 {fill:#000000;stroke:none; stroke-width:0.625; }
            .st6 {fill:#EBECDE;stroke:none; stroke-width:0.625; }
            .st7 {fill:#FFFFFF;stroke:none; stroke-width:0.625; }
        ]]>

    </style>
    <defs id="Gradients">
        <linearGradient id="grad1" gradientUnits="userSpaceOnUse" x1="136.00" y1="0.00" x2="0.00" y2="0.00">
            <stop offset="0.00" stop-color="#5C69A0" stop-opacity="1.00" />
            <stop offset="1.00" stop-color="#9CA7CE" stop-opacity="1.00" />
        </linearGradient>
    </defs>
    <defs id="Markers" />
    <defs id="Filters" />
    <g>
        <title>Layer-1</title>
        <g id="243" transform="translate(356.00,321.73)">
            <g id="244" transform="translate(-0.00,15.76)">
                <path d="M0.00,2.70 L0.00,80.24 L117.87,80.24 L117.87,0.00 C117.87,0.00 94.11,19.18 58.46,19.18 C22.82,19.18 0.63,2.70 0.00,2.70 z" class="st1" />
            </g>
            <g id="245" transform="translate(0.31,-0.04)">
                <path d="M0.00,18.78 L21.73,0.00 C21.73,0.00 41.58,19.32 70.66,22.02 C99.73,24.72 134.75,0.95 134.75,0.95 L117.87,16.08 C117.87,16.08 92.85,35.26 58.46,35.26 C24.07,35.26 0.00,18.78 0.00,18.78 z" class="st2" />
            </g>
            <g id="246" transform="translate(117.87,0.09)">
                <path d="M0.00,15.67 L18.13,0.00 L18.13,81.59 L0.00,96.45 L0.00,15.67 z" class="st3" />
            </g>
            <g id="247" transform="translate(4.14,50.55)">
                <g id="248" transform="translate(27.27,0.29)">
                    <path d="M0.04,0.04 C2.54,-0.11 4.66,0.68 5.92,1.57 C9.15,3.87 10.62,8.77 11.80,11.22 C12.98,13.67 15.48,19.64 18.86,20.10 C15.18,21.77 11.29,13.43 10.33,11.98 C7.94,8.42 7.09,3.97 5.33,2.80 C4.40,2.17 1.51,0.65 0.04,0.04 z" class="st4" />
                </g>
                <g id="249" transform="translate(9.81,0.52)">
                    <path d="M-0.07,0.04 C2.43,-0.11 4.22,1.44 5.48,2.34 C8.71,4.63 10.77,9.38 11.95,11.83 C13.12,14.28 15.48,19.03 18.86,20.57 C15.18,22.24 11.25,14.65 10.29,13.20 C7.90,9.63 6.65,4.73 4.89,3.56 C3.95,2.94 1.40,0.66 -0.07,0.04 z" class="st5" />
                </g>
                <g id="250" transform="translate(81.10,1.18)">
                    <path d="M0.00,-0.27 C2.51,-0.42 4.31,1.13 5.57,2.02 C8.80,4.32 10.86,9.07 12.03,11.52 C13.21,13.97 15.53,18.17 18.91,19.71 C15.23,21.39 11.34,14.33 10.38,12.89 C7.99,9.32 6.74,4.42 4.98,3.25 C4.04,2.63 1.49,0.34 0.00,-0.27 z" class="st5" />
                </g>
                <g id="251" transform="translate(46.14,1.24)">
                    <path d="M0.00,0.00 C2.48,-0.14 4.28,1.41 5.54,2.30 C8.77,4.60 10.12,9.74 11.29,12.19 C12.47,14.64 15.53,19.00 18.92,20.54 C15.24,22.21 10.49,15.10 9.53,13.66 C7.13,10.09 6.71,4.70 4.95,3.53 C4.01,2.91 1.46,0.62 0.00,0.00 z" class="st5" />
                </g>
                <g id="252" transform="translate(99.63,0.37)">
                    <path d="M-0.02,0.05 C2.48,-0.11 4.60,0.68 5.86,1.58 C9.09,3.88 9.85,10.24 10.15,13.00 C5.59,16.37 8.32,11.22 8.32,11.22 C8.32,11.22 7.04,3.98 5.27,2.80 C4.34,2.18 1.45,0.66 -0.02,0.05 z" class="st4" />
                </g>
                <g id="253" transform="translate(63.55,0.22)">
                    <path d="M0.04,0.04 C2.54,-0.11 4.33,1.13 5.59,2.02 C8.82,4.32 10.15,9.07 11.32,11.52 C12.50,13.97 13.82,19.94 17.20,20.40 C13.53,22.08 10.37,13.43 9.41,11.98 C7.02,8.41 7.09,3.97 5.33,2.79 C4.40,2.17 1.51,0.65 0.04,0.04 z" class="st4" />
                </g>
                <g id="254" transform="translate(2.00,10.32)">
                    <path d="M1.59,0.36 C2.77,2.81 4.68,8.93 8.06,9.39 C1.79,13.15 0.90,3.17 -0.06,1.72 C0.53,1.73 1.26,1.12 1.59,0.36 z" class="st4" />
                </g>
                <g id="255" transform="translate(10.32,2.07) translate(18.82,0) scale(-1,1)">
                    <path d="M0.04,0.04 C2.54,-0.11 4.66,0.68 5.92,1.57 C9.15,3.87 10.62,8.77 11.80,11.22 C12.98,13.67 15.48,19.64 18.86,20.10 C15.18,21.77 11.29,15.11 10.33,13.66 C7.94,10.09 6.76,5.24 4.73,3.42 C2.56,1.49 1.51,0.65 0.04,0.04 z" class="st4" />
                </g>
                <g id="256" transform="translate(45.02,3.09) translate(19.76,0) scale(-1,1)">
                    <path d="M0.00,0.02 C2.50,-0.11 3.83,0.32 5.09,1.21 C8.33,3.51 9.80,8.41 10.98,10.86 C12.15,13.31 15.20,18.51 19.76,19.04 C12.56,21.42 10.11,13.27 9.51,11.63 C7.76,6.90 6.35,3.24 4.59,2.06 C3.65,1.44 1.76,0.35 0.00,0.02 z" class="st4" />
                </g>
                <g id="257" transform="translate(99.22,12.00) translate(10.47,0) scale(-1,1)">
                    <path d="M2.62,0.05 C3.80,2.50 7.14,9.70 10.51,11.23 C4.64,11.85 1.03,5.60 0.03,1.49 C1.51,0.96 1.26,0.98 2.62,0.05 z" class="st5" />
                </g>
                <g id="258" transform="translate(81.81,3.01) translate(19.06,0) scale(-1,1)">
                    <path d="M0.03,0.43 C2.50,-0.55 4.04,0.34 5.30,1.23 C8.54,3.53 10.01,8.43 11.18,10.88 C12.36,13.33 15.73,18.40 19.11,18.86 C15.43,20.53 10.19,13.34 9.71,11.65 C8.56,7.53 6.75,4.65 5.38,3.00 C4.20,1.59 3.68,1.16 0.03,0.43 z" class="st4" />
                </g>
                <g id="259" transform="translate(26.93,3.09) translate(19.47,0) scale(-1,1)">
                    <path d="M-0.32,0.00 C2.11,-0.53 3.97,1.40 5.23,2.30 C8.47,4.59 9.75,10.34 10.93,12.79 C12.11,15.24 15.73,18.48 19.13,20.02 C15.44,21.69 9.69,15.31 8.72,13.86 C6.33,10.30 7.99,5.13 -0.32,0.00 z" class="st5" />
                </g>
                <g id="260" transform="translate(63.99,3.14) translate(19.53,0) scale(-1,1)">
                    <path d="M0.03,0.55 C2.41,-0.48 5.77,0.20 7.03,1.10 C10.26,3.39 11.33,9.13 12.51,11.58 C13.68,14.03 16.14,18.24 19.53,19.80 C13.64,20.39 10.87,14.62 10.26,12.98 C7.97,6.73 9.14,7.77 6.62,3.67 C4.10,-0.41 2.44,1.22 0.03,0.55 z" class="st5" />
                </g>
                <g id="261" transform="translate(1.00,3.15) translate(9.55,0) scale(-1,1)">
                    <path d="M0.00,0.08 C2.50,-0.08 4.54,-0.06 5.99,0.79 C9.40,2.79 7.84,7.40 9.46,9.85 C10.13,10.87 6.55,7.11 6.87,7.89 C6.58,4.95 6.28,3.30 4.46,1.95 C2.38,0.41 1.47,0.69 0.00,0.08 z" class="st5" />
                </g>
                <g id="262" transform="translate(0.15,0.37)">
                    <path d="M0.00,10.15 C0.32,8.61 1.88,-0.42 9.59,0.00 C14.42,0.38 17.45,5.63 18.70,8.46 C19.95,11.29 23.17,18.38 27.11,19.12 C30.00,19.66 34.14,15.20 35.54,10.83 C36.93,6.47 40.42,0.82 45.31,0.50 C52.22,0.00 54.28,8.15 55.46,11.68 C56.63,15.20 59.75,19.61 63.58,19.30 C66.64,19.06 70.54,12.23 71.87,8.71 C73.19,5.18 75.90,0.34 81.34,0.50 C86.36,0.64 90.79,7.68 91.75,10.97 C92.70,14.26 96.33,19.79 99.57,19.79 C102.92,19.79 105.74,13.79 105.80,12.20 C105.86,10.78 108.05,10.09 108.23,12.01 C108.45,14.28 106.33,22.70 99.57,22.82 C94.39,23.24 90.22,15.51 90.22,14.89 C88.16,9.84 86.61,3.76 81.04,3.25 C74.93,2.70 74.43,11.43 71.93,14.95 C71.49,17.71 67.66,22.42 63.25,22.70 C58.55,22.82 54.46,17.47 52.67,12.75 C50.90,8.77 50.90,3.67 45.76,3.38 C40.32,3.07 37.67,12.60 36.35,15.35 C35.61,17.96 31.35,22.89 27.23,22.43 C23.94,22.06 19.91,20.44 17.23,12.90 C14.55,5.36 12.76,2.64 8.85,2.79 C3.85,2.99 2.94,7.60 2.82,10.05 C2.68,13.00 0.18,9.84 0.00,10.15 z" class="st6" />
                </g>
                <g id="263" transform="translate(0.09,-0.03) translate(0,22.86) scale(1,-1)">
                    <path d="M0.00,11.11 C0.59,7.99 2.73,0.60 9.20,0.00 C14.04,-0.20 16.87,5.52 18.12,8.36 C19.37,11.19 22.00,19.14 27.29,19.63 C30.21,19.90 33.75,15.15 35.15,10.79 C36.54,6.42 40.03,0.78 44.92,0.45 C51.83,0.00 54.28,8.08 55.46,11.60 C56.64,15.12 59.17,19.87 63.30,19.44 C66.36,19.12 69.92,13.31 71.24,9.79 C72.57,6.27 75.51,0.30 80.95,0.45 C85.97,0.59 90.20,7.82 91.16,11.11 C92.12,14.41 95.39,20.24 99.18,19.75 C102.50,19.31 105.68,11.98 105.63,10.56 C105.51,7.32 106.09,7.87 108.04,10.38 C109.23,11.91 105.94,22.66 99.18,22.86 C94.00,23.20 89.47,15.15 89.47,14.54 C87.42,9.49 85.34,3.15 79.93,3.52 C75.98,3.79 74.10,12.03 72.46,15.16 C69.75,18.59 69.34,21.90 62.86,22.66 C58.18,23.20 52.57,13.93 52.28,12.70 C50.51,8.72 50.79,3.93 45.64,3.64 C40.20,3.33 37.55,12.46 36.23,15.22 C35.49,17.82 32.43,22.86 26.84,22.66 C23.53,22.47 19.33,20.43 16.65,12.89 C13.96,5.35 13.39,3.71 9.41,3.40 C6.29,3.15 3.88,8.11 3.06,11.73 C2.31,15.03 0.23,10.81 0.00,11.11 z" class="st6" />
                </g>
                <g id="264" transform="translate(89.59,-0.00)">
                    <path d="M10.41,0.02 C5.36,-0.41 1.20,3.89 0.02,7.48 C0.27,7.65 0.69,7.57 0.86,8.29 C1.70,5.20 4.87,1.11 10.41,0.02 z" class="st7" />
                </g>
                <g id="265" transform="translate(0.11,0.55)">
                    <path d="M10.12,0.00 C5.67,-0.21 -0.14,2.03 -0.02,11.22 C0.45,11.17 0.51,11.34 0.86,11.16 C1.10,5.83 3.04,1.23 10.12,0.00 z" class="st7" />
                </g>
                <g id="266" transform="translate(17.45,0.13)">
                    <path d="M11.13,0.07 C4.78,-0.91 1.28,4.26 0.11,7.84 C-0.32,7.99 0.64,7.91 1.05,8.21 C1.89,5.13 5.07,0.81 11.13,0.07 z" class="st7" />
                </g>
                <g id="267" transform="translate(36.73,0.64)">
                    <path d="M9.76,0.29 C5.11,-0.20 1.23,4.49 0.05,8.07 C0.94,8.63 0.47,8.09 0.64,8.81 C1.48,5.73 4.21,1.39 9.76,0.29 z" class="st7" />
                </g>
                <g id="268" transform="translate(53.93,0.17)">
                    <path d="M9.85,0.02 C5.26,-0.52 1.03,3.42 -0.15,7.01 C0.48,8.01 0.04,7.15 0.21,7.87 C1.05,4.78 4.31,1.12 9.85,0.02 z" class="st7" />
                </g>
                <g id="269" transform="translate(72.51,1.20)">
                    <path d="M9.50,-0.33 C2.87,-0.56 1.15,3.00 -0.03,6.59 C0.22,6.77 0.69,6.41 0.85,7.14 C1.32,3.40 3.87,0.79 9.50,-0.33 z" class="st7" />
                </g>
                <g id="270" transform="translate(98.86,12.44) translate(7.76,0) scale(-1,1) translate(0,7.73) scale(1,-1)">
                    <path d="M8.08,0.16 C3.82,-0.76 1.49,3.22 0.32,6.81 C0.80,7.29 0.62,7.07 0.79,7.79 C1.63,4.70 3.08,0.01 8.08,0.16 z" class="st7" />
                </g>
                <g id="271" transform="translate(8.48,11.12) translate(8.67,0) scale(-1,1) translate(0,9.12) scale(1,-1)">
                    <path d="M8.61,0.16 C4.35,-0.76 1.18,4.79 0.00,8.38 C0.25,8.56 0.67,8.47 0.84,9.19 C1.68,6.11 3.61,0.00 8.61,0.16 z" class="st7" />
                </g>
                <g id="272" transform="translate(26.66,12.33) translate(9.29,0) scale(-1,1) translate(0,8.62) scale(1,-1)">
                    <path d="M9.28,0.11 C5.01,-0.81 1.69,4.70 -0.03,7.87 C0.22,8.04 0.64,7.95 0.81,8.67 C2.63,5.74 4.22,0.48 9.28,0.11 z" class="st7" />
                </g>
                <g id="273" transform="translate(45.04,11.01) translate(8.35,0) scale(-1,1) translate(0,8.58) scale(1,-1)">
                    <path d="M8.78,0.46 C4.51,-0.46 1.56,3.83 0.38,7.42 C0.63,7.60 0.96,8.24 1.43,8.91 C2.27,5.83 3.78,0.31 8.78,0.46 z" class="st7" />
                </g>
                <g id="274" transform="translate(62.65,12.11) translate(8.88,0) scale(-1,1) translate(0,7.72) scale(1,-1)">
                    <path d="M8.87,0.12 C4.60,-0.80 1.87,3.76 -0.03,6.90 C0.22,7.07 0.64,6.98 0.81,7.71 C2.63,4.74 4.81,0.27 8.87,0.12 z" class="st7" />
                </g>
                <g id="275" transform="translate(80.00,10.68) translate(9.47,0) scale(-1,1) translate(0,8.80) scale(1,-1)">
                    <path d="M9.45,0.11 C5.19,-0.81 1.15,4.55 -0.03,8.14 C0.22,8.31 0.79,8.04 0.96,8.77 C2.04,5.68 4.45,-0.05 9.45,0.11 z" class="st7" />
                </g>
            </g>
        </g>
    </g>
</svg>
