<?xml version="1.0" encoding="utf-8" standalone="no" ?>
<!--Generated by Edraw, SVGExporter, v1.0-->
<svg version="1.1" xmlns="http://www.w3.org/2000/svg" xmlns:xlink="http://www.w3.org/1999/xlink" xmlns:ed="http://www.edrawsoft.com/schema/svg" ed:version="version 5" viewBox="0 0 1188 840">
    <style type="text/css">
        <![CDATA[
            .st1 {fill:none;stroke:#3C5C74; stroke-width:1; stroke-linejoin:bevel; }
            .st2 {fill:#5C69A0;stroke:none; stroke-width:0.46875; }
            .st3 {fill:url(#grad1);stroke:none; stroke-width:0.46875; }
            .st4 {fill:#1F396C;stroke:none; stroke-width:0.46875; }
            .st5 {fill:#FFFFFF;stroke:#FFFFFF; stroke-width:0.625; }
        ]]>

    </style>
    <defs id="Gradients">
        <linearGradient id="grad1" gradientUnits="userSpaceOnUse" x1="169.00" y1="0.00" x2="0.00" y2="0.00">
            <stop offset="0.00" stop-color="#5C69A0" stop-opacity="1.00" />
            <stop offset="1.00" stop-color="#9CA7CE" stop-opacity="1.00" />
        </linearGradient>
    </defs>
    <defs id="Markers" />
    <defs id="Filters">
        <filter id="fltr1">
            <feGaussianBlur in="SourceAlpha" stdDeviation="3" result="blur" />
        </filter>
    </defs>
    <g>
        <title>Layer-1</title>
        <g ed:type="shadow" transform="translate(430.979,542) translate(-428.979,-540) translate(344.98,456.00)" filter="url(#fltr1)">
            <g transform="translate(0.07,40.71)">
                <path d="M0.00,0.00 L125.05,0.00 L125.05,43.23 L0.00,43.23 L0.00,0.00 z" style="fill:#000000; fill-rule:nonzero;fill-opacity:0.4; stroke:none;" />
            </g>
            <g transform="translate(0.00,0.16)">
                <path d="M50.57,0.00 L168.00,0.00 L125.11,41.17 L0.00,41.17 L50.57,0.00 z" style="fill:#000000; fill-rule:nonzero;fill-opacity:0.4; stroke:none;" />
            </g>
            <g transform="translate(124.78,0.00)">
                <path d="M-0.10,41.18 L43.04,0.00 L42.97,40.91 L-0.18,84.00 L-0.10,41.18 z" style="fill:#000000; fill-rule:nonzero;fill-opacity:0.4; stroke:none;" />
            </g>
            <g transform="translate(106.73,5.10) translate(44.52,0) scale(-1,1) translate(0,9.98) scale(1,-1)">
                <path d="M44.52,4.20 L43.04,6.82 L12.70,6.80 L10.40,9.99 L0.00,4.96 L18.09,-0.03 L14.93,4.07 L44.52,4.20 z" style="fill:#000000; fill-rule:nonzero;fill-opacity:0.4; stroke:none;" />
            </g>
            <g transform="translate(87.25,20.25) translate(45.39,0) scale(-1,1) translate(0,9.98) scale(1,-1)">
                <path d="M45.39,4.20 L43.91,6.82 L13.57,6.80 L11.27,9.99 L0.00,4.80 L18.96,-0.03 L15.80,4.07 L45.39,4.20 z" style="fill:#000000; fill-rule:nonzero;fill-opacity:0.4; stroke:none;" />
            </g>
            <g transform="translate(40.96,11.93)">
                <path d="M48.00,3.51 L46.46,5.66 L13.87,5.55 L10.73,8.34 L0.00,4.52 L20.02,0.00 L15.73,3.41 L48.00,3.51 z" style="fill:#000000; fill-rule:nonzero;fill-opacity:0.4; stroke:none;" />
            </g>
            <g transform="translate(22.84,26.26)">
                <path d="M47.63,3.51 L46.09,5.66 L13.50,5.55 L10.35,8.34 L0.00,4.54 L19.65,0.00 L15.36,3.41 L47.63,3.51 z" style="fill:#000000; fill-rule:nonzero;fill-opacity:0.4; stroke:none;" />
            </g>
        </g>
        <g id="174" transform="translate(344.98,456.00)">
            <g id="175" transform="translate(0.07,40.71)">
                <path d="M0.00,0.00 L125.05,0.00 L125.05,43.23 L0.00,43.23 L0.00,0.00 z" class="st2" />
            </g>
            <g id="176" transform="translate(0.00,0.16)">
                <path d="M50.57,0.00 L168.00,0.00 L125.11,41.17 L0.00,41.17 L50.57,0.00 z" class="st3" />
            </g>
            <g id="177" transform="translate(124.78,0.00)">
                <path d="M-0.10,41.18 L43.04,0.00 L42.97,40.91 L-0.18,84.00 L-0.10,41.18 z" class="st4" />
            </g>
            <g id="178" transform="translate(106.73,5.10) translate(44.52,0) scale(-1,1) translate(0,9.98) scale(1,-1)">
                <path d="M44.52,4.20 L43.04,6.82 L12.70,6.80 L10.40,9.99 L0.00,4.96 L18.09,-0.03 L14.93,4.07 L44.52,4.20 z" class="st5" />
            </g>
            <g id="179" transform="translate(87.25,20.25) translate(45.39,0) scale(-1,1) translate(0,9.98) scale(1,-1)">
                <path d="M45.39,4.20 L43.91,6.82 L13.57,6.80 L11.27,9.99 L0.00,4.80 L18.96,-0.03 L15.80,4.07 L45.39,4.20 z" class="st5" />
            </g>
            <g id="180" transform="translate(40.96,11.93)">
                <path d="M48.00,3.51 L46.46,5.66 L13.87,5.55 L10.73,8.34 L0.00,4.52 L20.02,0.00 L15.73,3.41 L48.00,3.51 z" class="st5" />
            </g>
            <g id="181" transform="translate(22.84,26.26)">
                <path d="M47.63,3.51 L46.09,5.66 L13.50,5.55 L10.35,8.34 L0.00,4.54 L19.65,0.00 L15.36,3.41 L47.63,3.51 z" class="st5" />
            </g>
        </g>
    </g>
</svg>
