<?xml version="1.0" encoding="utf-8" standalone="no" ?>
<!--Generated by Edraw, SVGExporter, v1.0-->
<svg version="1.1" xmlns="http://www.w3.org/2000/svg" xmlns:xlink="http://www.w3.org/1999/xlink" xmlns:ed="http://www.edrawsoft.com/schema/svg" ed:version="version 5" viewBox="0 0 1188 840">
    <style type="text/css">
        <![CDATA[
            .st1 {fill:none;stroke:#3C5C74; stroke-width:1; stroke-linejoin:bevel; }
            .st2 {fill:#5C69A0;stroke:#5C69A0; stroke-width:0.183106; }
            .st3 {fill:#1F396C;stroke:#5C69A0; stroke-width:0.183106; }
            .st4 {fill:url(#grad1);stroke:#5C69A0; stroke-width:0.183106; }
            .st5 {fill:#17365D;stroke:none; stroke-width:0.183106; }
            .st6 {fill:#FFFFFF;stroke:none; stroke-width:0.183106; }
        ]]>

    </style>
    <defs id="Gradients">
        <linearGradient id="grad1" gradientUnits="userSpaceOnUse" x1="109.00" y1="0.00" x2="0.00" y2="0.00">
            <stop offset="0.00" stop-color="#5C69A0" stop-opacity="1.00" />
            <stop offset="1.00" stop-color="#9CA7CE" stop-opacity="1.00" />
        </linearGradient>
    </defs>
    <defs id="Markers" />
    <defs id="Filters">
        <filter id="fltr1">
            <feGaussianBlur in="SourceAlpha" stdDeviation="3" result="blur" />
        </filter>
    </defs>
    <g>
        <title>Layer-1</title>
        <g ed:type="shadow" transform="translate(388,404) translate(-386,-402) translate(332.00,300.00)" filter="url(#fltr1)">
            <g transform="translate(0.00,16.00)">
                <path d="M0.00,0.00 L92.00,0.00 L92.00,86.00 L0.00,86.00 z" style="fill:#000000; fill-rule:nonzero;fill-opacity:0.4; stroke:none;" />
            </g>
            <g transform="translate(92.00,0.00)">
                <path d="M0.00,16.32 L16.00,0.00 L16.00,85.68 L0.00,102.00 z" style="fill:#000000; fill-rule:nonzero;fill-opacity:0.4; stroke:none;" />
            </g>
            <g transform="">
                <path d="M15.66,0.00 L108.00,0.00 L92.34,16.00 L0.00,16.00 z" style="fill:#000000; fill-rule:nonzero;fill-opacity:0.4; stroke:none;" />
            </g>
            <g transform="translate(10.25,24.38)">
                <path d="M26.47,61.91 L11.43,61.91 L11.43,67.82 L0.00,59.53 L11.43,49.83 L11.43,56.96 L23.09,56.96 L47.54,7.14 L62.79,7.18 L62.79,0.00 L73.14,9.98 L63.08,20.55 L63.08,12.55 L50.74,12.55 L26.47,61.91 z" style="fill:#000000; fill-rule:nonzero;fill-opacity:0.4; stroke:none;" />
            </g>
            <g transform="translate(10.76,24.69) translate(73.02,0) scale(-1,1)">
                <path d="M26.47,61.79 L11.15,61.79 L11.15,67.94 L0.00,59.41 L11.15,49.70 L11.43,56.84 L23.09,56.84 L47.54,7.02 L62.79,7.06 L62.79,0.00 L73.02,9.80 L63.28,19.76 L63.08,12.43 L50.74,12.43 L26.47,61.79 z" style="fill:#000000; fill-rule:nonzero;fill-opacity:0.4; stroke:none;" />
            </g>
            <g transform="translate(10.05,26.40) translate(73.14,0) scale(-1,1)">
                <path d="M26.47,61.55 L11.43,61.55 L11.43,67.22 L0.00,59.17 L11.43,49.38 L11.43,56.60 L23.09,56.60 L47.54,6.78 L62.79,6.82 L62.79,0.00 L73.14,9.77 L62.79,19.04 L62.79,12.29 L50.74,12.19 L26.47,61.55 z" style="fill:#000000; fill-rule:nonzero;fill-opacity:0.4; stroke:none;" />
            </g>
            <g transform="translate(8.22,25.57)">
                <path d="M26.35,61.79 L11.31,61.79 L11.31,67.70 L0.00,59.21 L11.31,49.70 L11.31,56.84 L22.97,56.84 L47.42,7.02 L62.67,7.06 L62.67,0.00 L72.90,9.52 L62.67,18.88 L62.67,12.43 L50.62,12.43 L26.35,61.79 z" style="fill:#000000; fill-rule:nonzero;fill-opacity:0.4; stroke:none;" />
            </g>
        </g>
        <g id="235" transform="translate(332.00,300.00)">
            <g id="236" transform="translate(0.00,16.00)">
                <path d="M0.00,0.00 L92.00,0.00 L92.00,86.00 L0.00,86.00 z" class="st2" />
            </g>
            <g id="237" transform="translate(92.00,0.00)">
                <path d="M0.00,16.32 L16.00,0.00 L16.00,85.68 L0.00,102.00 z" class="st3" />
            </g>
            <g id="238">
                <path d="M15.66,0.00 L108.00,0.00 L92.34,16.00 L0.00,16.00 z" class="st4" />
            </g>
            <g id="239" transform="translate(10.25,24.38)">
                <path d="M26.47,61.91 L11.43,61.91 L11.43,67.82 L0.00,59.53 L11.43,49.83 L11.43,56.96 L23.09,56.96 L47.54,7.14 L62.79,7.18 L62.79,0.00 L73.14,9.98 L63.08,20.55 L63.08,12.55 L50.74,12.55 L26.47,61.91 z" class="st5" />
            </g>
            <g id="240" transform="translate(10.76,24.69) translate(73.02,0) scale(-1,1)">
                <path d="M26.47,61.79 L11.15,61.79 L11.15,67.94 L0.00,59.41 L11.15,49.70 L11.43,56.84 L23.09,56.84 L47.54,7.02 L62.79,7.06 L62.79,0.00 L73.02,9.80 L63.28,19.76 L63.08,12.43 L50.74,12.43 L26.47,61.79 z" class="st5" />
            </g>
            <g id="241" transform="translate(10.05,26.40) translate(73.14,0) scale(-1,1)">
                <path d="M26.47,61.55 L11.43,61.55 L11.43,67.22 L0.00,59.17 L11.43,49.38 L11.43,56.60 L23.09,56.60 L47.54,6.78 L62.79,6.82 L62.79,0.00 L73.14,9.77 L62.79,19.04 L62.79,12.29 L50.74,12.19 L26.47,61.55 z" class="st6" />
            </g>
            <g id="242" transform="translate(8.22,25.57)">
                <path d="M26.35,61.79 L11.31,61.79 L11.31,67.70 L0.00,59.21 L11.31,49.70 L11.31,56.84 L22.97,56.84 L47.42,7.02 L62.67,7.06 L62.67,0.00 L72.90,9.52 L62.67,18.88 L62.67,12.43 L50.62,12.43 L26.35,61.79 z" class="st6" />
            </g>
        </g>
    </g>
</svg>
