<?xml version="1.0" encoding="utf-8" standalone="no" ?>
<!--Generated by Edraw, SVGExporter, v1.0-->
<svg version="1.1" xmlns="http://www.w3.org/2000/svg" xmlns:xlink="http://www.w3.org/1999/xlink" xmlns:ed="http://www.edrawsoft.com/schema/svg" ed:version="version 5" viewBox="0 0 1188 840">
    <style type="text/css">
        <![CDATA[
            .st1 {fill:none;stroke:#8D99C5; stroke-width:0.25; stroke-linejoin:bevel; }
            .st2 {fill:#5C69A0;stroke:#8D99C5; stroke-width:0.25; }
            .st3 {fill:none;stroke:#3C5C74; stroke-width:1; stroke-linejoin:bevel; }
            .st4 {fill:#193D68;stroke:none; stroke-width:0.46875; }
            .st5 {fill:#193D68;stroke:none; stroke-width:0.625; }
            .st6 {fill:#FFFFFF;stroke:none; stroke-width:0.46875; }
            .st7 {fill:#FFFFFF;stroke:none; stroke-width:0.625; }
            .st8 {fill:#122B4A;stroke:none; stroke-width:0.625; }
            .st9 {fill:#5C69A0;stroke:none; stroke-width:0.625; }
            .st10 {fill:url(#grad1);stroke:#8D99C5; stroke-width:0.25; }
            .st11 {fill:#1F396C;stroke:#8D99C5; stroke-width:0.25; }
        ]]>

    </style>
    <defs id="Gradients">
        <linearGradient id="grad1" gradientUnits="userSpaceOnUse" x1="97.00" y1="0.00" x2="0.00" y2="0.00">
            <stop offset="0.00" stop-color="#5C69A0" stop-opacity="1.00" />
            <stop offset="1.00" stop-color="#9CA7CE" stop-opacity="1.00" />
        </linearGradient>
    </defs>
    <defs id="Markers" />
    <defs id="Filters" />
    <g>
        <title>Layer-1</title>
        <g id="217" transform="translate(354.00,328.00)">
            <g id="218" transform="translate(0.00,16.38)">
                <path d="M0.00,0.00 L78.72,0.00 L78.72,75.62 L0.00,75.62 L0.00,0.00 z" class="st2" />
            </g>
            <g id="219" transform="translate(5.43,19.37)">
                <g id="220" transform="translate(0.01,-0.12)">
                    <g id="221" transform="translate(14.33,0.12) translate(0,31.68) scale(1,-1)">
                        <path d="M2.73,0.00 L8.22,2.63 L8.38,20.19 L15.98,20.29 L5.96,31.68 L-0.05,22.03 L3.32,20.29 L2.73,0.00 z" class="st4" />
                    </g>
                    <g id="222" transform="translate(17.39,17.80)">
                        <path d="M0.00,17.48 C0.00,7.82 7.64,0.00 17.06,0.00 C26.48,0.00 34.12,7.82 34.12,17.48 C34.12,27.13 26.48,34.95 17.06,34.95 C7.64,34.95 0.00,27.13 0.00,17.48 z" class="st5" />
                    </g>
                    <g id="223" transform="translate(39.73,35.23)">
                        <path d="M6.29,2.78 L11.81,0.00 L11.81,23.16 L18.53,23.03 L8.96,33.62 L0.03,23.55 L7.02,23.42 L6.29,2.78 z" class="st4" />
                    </g>
                    <g id="224" transform="translate(41.02,6.01) rotate(90.00,9.96,15.46) translate(0,30.92) scale(1,-1)">
                        <path d="M6.39,0.03 L11.59,0.81 L12.18,19.71 L19.98,19.81 L9.70,30.92 L0.07,19.63 L6.54,19.76 L6.39,0.03 z" class="st4" />
                    </g>
                    <g id="225" transform="translate(5.68,35.88) rotate(-90.00,9.76,15.26) translate(19.52,0) scale(-1,1) translate(0,30.53) scale(1,-1)">
                        <path d="M6.40,0.13 L11.37,0.62 L11.84,20.18 L19.46,20.31 L9.48,30.72 L-0.06,19.90 L6.53,19.92 L6.40,0.13 z" class="st4" />
                    </g>
                </g>
                <g id="226" transform="translate(10.37,1.20) translate(0,34.61) scale(1,-1)">
                    <path d="M5.98,0.05 L11.67,4.96 L11.67,23.58 L18.27,23.58 L8.82,34.61 L0.00,23.58 L6.11,23.58 L5.98,0.05 z" class="st6" />
                </g>
                <g id="227" transform="translate(16.40,18.99)">
                    <path d="M0.00,17.48 C0.00,7.82 7.64,0.00 17.06,0.00 C26.48,0.00 34.12,7.82 34.12,17.48 C34.12,27.13 26.48,34.95 17.06,34.95 C7.64,34.95 0.00,27.13 0.00,17.48 z" class="st7" />
                </g>
                <g id="228" transform="translate(39.07,35.90)">
                    <path d="M5.97,2.62 L11.43,0.00 L11.56,22.89 L17.57,22.89 L9.19,34.27 L0.06,22.89 L6.13,22.89 L5.97,2.62 z" class="st6" />
                </g>
                <g id="229" transform="translate(40.88,6.49) rotate(90.00,9.52,15.33) translate(0,30.67) scale(1,-1)">
                    <path d="M6.78,0.03 L11.97,0.81 L11.85,20.10 L19.00,20.10 L9.35,30.67 L0.03,20.10 L6.78,20.10 L6.78,0.03 z" class="st6" />
                </g>
                <g id="230" transform="translate(7.27,34.37) rotate(-90.00,9.71,16.93) translate(19.41,0) scale(-1,1) translate(0,33.86) scale(1,-1)">
                    <path d="M7.15,3.12 L12.34,0.00 L12.53,23.51 L19.41,23.51 L9.57,33.86 L0.00,23.51 L7.10,23.51 L7.15,3.12 z" class="st6" />
                </g>
                <g id="231" transform="translate(21.86,24.76)">
                    <path d="M0.00,11.46 C0.00,5.13 5.01,0.00 11.18,0.00 C17.36,0.00 22.37,5.13 22.37,11.46 C22.37,17.78 17.36,22.91 11.18,22.91 C5.01,22.91 0.00,17.78 0.00,11.46 z" class="st8" />
                </g>
                <g id="232" transform="translate(23.42,24.85)">
                    <path d="M0.00,10.65 C0.00,4.77 4.66,0.00 10.40,0.00 C16.14,0.00 20.80,4.77 20.80,10.65 C20.80,16.54 16.14,21.31 10.40,21.31 C4.66,21.31 0.00,16.54 0.00,10.65 z" class="st9" />
                </g>
            </g>
            <g id="233">
                <path d="M16.80,0.00 L96.00,0.00 L79.20,16.38 L0.00,16.38 L16.80,0.00 z" class="st10" />
            </g>
            <g id="234" transform="translate(78.72,0.00)">
                <path d="M0.00,16.56 L17.28,0.00 L17.28,75.44 L0.00,92.00 L0.00,16.56 z" class="st11" />
            </g>
        </g>
    </g>
</svg>
