<?xml version="1.0" encoding="utf-8" standalone="no" ?>
<!--Generated by Edraw, SVGExporter, v1.0-->
<svg version="1.1" xmlns="http://www.w3.org/2000/svg" xmlns:xlink="http://www.w3.org/1999/xlink" xmlns:ed="http://www.edrawsoft.com/schema/svg" ed:version="version 5" viewBox="0 0 1188 840">
    <style type="text/css">
        <![CDATA[
            .st1 {fill:none;stroke:#3C5C74; stroke-width:1; stroke-linejoin:bevel; }
            .st2 {fill:#5C69A0;stroke:#5C69A0; stroke-width:0.183106; }
            .st3 {fill:#1F396C;stroke:#5C69A0; stroke-width:0.183106; }
            .st4 {fill:url(#grad1);stroke:#5C69A0; stroke-width:0.183106; }
            .st5 {fill:#17365D;stroke:none; stroke-width:0.625; }
            .st6 {fill:#FFFFFF;stroke:none; stroke-width:0.625; }
        ]]>

    </style>
    <defs id="Gradients">
        <linearGradient id="grad1" gradientUnits="userSpaceOnUse" x1="109.00" y1="0.00" x2="0.00" y2="0.00">
            <stop offset="0.00" stop-color="#5C69A0" stop-opacity="1.00" />
            <stop offset="1.00" stop-color="#9CA7CE" stop-opacity="1.00" />
        </linearGradient>
    </defs>
    <defs id="Markers" />
    <defs id="Filters">
        <filter id="fltr1">
            <feGaussianBlur in="SourceAlpha" stdDeviation="3" result="blur" />
        </filter>
    </defs>
    <g>
        <title>Layer-1</title>
        <g ed:type="shadow" transform="translate(388,402) translate(-386,-400) translate(332.00,298.00)" filter="url(#fltr1)">
            <g transform="translate(0.00,16.00)">
                <path d="M0.00,0.00 L92.00,0.00 L92.00,86.00 L0.00,86.00 z" style="fill:#000000; fill-rule:nonzero;fill-opacity:0.4; stroke:none;" />
            </g>
            <g transform="translate(92.00,0.00)">
                <path d="M0.00,16.32 L16.00,0.00 L16.00,85.68 L0.00,102.00 z" style="fill:#000000; fill-rule:nonzero;fill-opacity:0.4; stroke:none;" />
            </g>
            <g transform="">
                <path d="M15.66,0.00 L108.00,0.00 L92.34,16.00 L0.00,16.00 z" style="fill:#000000; fill-rule:nonzero;fill-opacity:0.4; stroke:none;" />
            </g>
            <g transform="translate(46.81,57.63)">
                <path d="M4.08,0.00 L-0.20,4.30 L9.59,14.12 L13.88,9.82 L4.08,0.00 z" style="fill:#000000; fill-rule:nonzero;fill-opacity:0.4; stroke:none;" />
            </g>
            <g transform="translate(17.53,28.86)">
                <g transform="translate(0.08,-0.16)">
                    <path d="M0.35,0.00 L15.36,0.77 L10.76,5.86 L18.32,13.61 L13.53,18.81 L6.57,9.78 L1.26,15.22 L0.35,0.00 z" style="fill:#000000; fill-rule:nonzero;fill-opacity:0.4; stroke:none;" />
                </g>
                <g transform="translate(42.47,41.77) translate(17.09,0) scale(-1,1) translate(0,17.08) scale(1,-1)">
                    <path d="M0.25,0.75 L14.19,0.00 L10.53,4.90 L17.12,13.16 L13.21,17.12 L5.40,9.03 L0.09,14.47 L0.25,0.75 z" style="fill:#000000; fill-rule:nonzero;fill-opacity:0.4; stroke:none;" />
                </g>
                <g transform="translate(16.58,16.07)">
                    <path d="M4.08,0.00 L-0.20,4.30 L9.59,14.12 L13.88,9.82 L4.08,0.00 z" style="fill:#000000; fill-rule:nonzero;fill-opacity:0.4; stroke:none;" />
                </g>
            </g>
            <g transform="translate(16.23,28.56)">
                <path d="M0.00,0.00 L15.45,-0.07 L9.89,5.86 L17.93,13.91 L13.26,18.78 L5.27,10.59 L0.09,15.44 L0.00,0.00 z" style="fill:#000000; fill-rule:nonzero;fill-opacity:0.4; stroke:none;" />
            </g>
            <g transform="translate(57.94,71.44) translate(17.23,0) scale(-1,1) translate(0,17.70) scale(1,-1)">
                <path d="M0.00,0.04 L14.35,0.34 L9.54,5.49 L17.23,13.24 L12.76,17.70 L5.28,9.89 L-0.03,15.33 L0.00,0.04 z" style="fill:#000000; fill-rule:nonzero;fill-opacity:0.4; stroke:none;" />
            </g>
            <g transform="translate(32.29,45.32)">
                <path d="M4.04,0.00 L-0.20,4.35 L9.49,14.29 L13.73,9.94 L4.04,0.00 z" style="fill:#000000; fill-rule:nonzero;fill-opacity:0.4; stroke:none;" />
            </g>
            <g transform="translate(45.00,58.03)">
                <path d="M4.04,0.00 L-0.20,4.35 L9.49,14.29 L13.73,9.94 L4.04,0.00 z" style="fill:#000000; fill-rule:nonzero;fill-opacity:0.4; stroke:none;" />
            </g>
        </g>
        <g id="358" transform="translate(332.00,298.00)">
            <g id="359" transform="translate(0.00,16.00)">
                <path d="M0.00,0.00 L92.00,0.00 L92.00,86.00 L0.00,86.00 z" class="st2" />
            </g>
            <g id="360" transform="translate(92.00,0.00)">
                <path d="M0.00,16.32 L16.00,0.00 L16.00,85.68 L0.00,102.00 z" class="st3" />
            </g>
            <g id="361">
                <path d="M15.66,0.00 L108.00,0.00 L92.34,16.00 L0.00,16.00 z" class="st4" />
            </g>
            <g id="362" transform="translate(46.81,57.63)">
                <path d="M4.08,0.00 L-0.20,4.30 L9.59,14.12 L13.88,9.82 L4.08,0.00 z" class="st5" />
            </g>
            <g id="363" transform="translate(17.53,28.86)">
                <g id="364" transform="translate(0.08,-0.16)">
                    <path d="M0.35,0.00 L15.36,0.77 L10.76,5.86 L18.32,13.61 L13.53,18.81 L6.57,9.78 L1.26,15.22 L0.35,0.00 z" class="st5" />
                </g>
                <g id="365" transform="translate(42.47,41.77) translate(17.09,0) scale(-1,1) translate(0,17.08) scale(1,-1)">
                    <path d="M0.25,0.75 L14.19,0.00 L10.53,4.90 L17.12,13.16 L13.21,17.12 L5.40,9.03 L0.09,14.47 L0.25,0.75 z" class="st5" />
                </g>
                <g id="366" transform="translate(16.58,16.07)">
                    <path d="M4.08,0.00 L-0.20,4.30 L9.59,14.12 L13.88,9.82 L4.08,0.00 z" class="st5" />
                </g>
            </g>
            <g id="367" transform="translate(16.23,28.56)">
                <path d="M0.00,0.00 L15.45,-0.07 L9.89,5.86 L17.93,13.91 L13.26,18.78 L5.27,10.59 L0.09,15.44 L0.00,0.00 z" class="st6" />
            </g>
            <g id="368" transform="translate(57.94,71.44) translate(17.23,0) scale(-1,1) translate(0,17.70) scale(1,-1)">
                <path d="M0.00,0.04 L14.35,0.34 L9.54,5.49 L17.23,13.24 L12.76,17.70 L5.28,9.89 L-0.03,15.33 L0.00,0.04 z" class="st6" />
            </g>
            <g id="369" transform="translate(32.29,45.32)">
                <path d="M4.04,0.00 L-0.20,4.35 L9.49,14.29 L13.73,9.94 L4.04,0.00 z" class="st6" />
            </g>
            <g id="370" transform="translate(45.00,58.03)">
                <path d="M4.04,0.00 L-0.20,4.35 L9.49,14.29 L13.73,9.94 L4.04,0.00 z" class="st6" />
            </g>
        </g>
    </g>
</svg>
