<?xml version="1.0" encoding="utf-8" standalone="no" ?>
<!--Generated by Edraw, SVGExporter, v1.0-->
<svg version="1.1" xmlns="http://www.w3.org/2000/svg" xmlns:xlink="http://www.w3.org/1999/xlink" xmlns:ed="http://www.edrawsoft.com/schema/svg" ed:version="version 5" viewBox="0 0 1188 840">
    <style type="text/css">
        <![CDATA[
            .st1 {fill:none;stroke:#3C5C74; stroke-width:1; stroke-linejoin:bevel; }
            .st2 {fill:#5C69A0;stroke:#5C69A0; stroke-width:0.183106; }
            .st3 {fill:#1F396C;stroke:#5C69A0; stroke-width:0.183106; }
            .st4 {fill:url(#grad1);stroke:#5C69A0; stroke-width:0.183106; }
            .st5 {fill:#FFFFFF;stroke:none; stroke-width:0.114441; }
            .st6 {fill:url(#grad2);stroke:none; stroke-width:0.390625; }
        ]]>

    </style>
    <defs id="Gradients">
        <linearGradient id="grad1" gradientUnits="userSpaceOnUse" x1="109.00" y1="0.00" x2="0.00" y2="0.00">
            <stop offset="0.00" stop-color="#5C69A0" stop-opacity="1.00" />
            <stop offset="1.00" stop-color="#9CA7CE" stop-opacity="1.00" />
        </linearGradient>
        <radialGradient id="grad2" spreadMethod="pad" gradientUnits="userSpaceOnUse" cx="19.5" cy="20" r="20">
            <stop offset="0.00" stop-color="#FFFFFF" stop-opacity="1.00" />
            <stop offset="1.00" stop-color="#193658" stop-opacity="1.00" />
        </radialGradient>
    </defs>
    <defs id="Markers" />
    <defs id="Filters">
        <filter id="fltr1">
            <feGaussianBlur in="SourceAlpha" stdDeviation="3" result="blur" />
        </filter>
    </defs>
    <g>
        <title>Layer-1</title>
        <g ed:type="shadow" transform="translate(382,413) translate(-380,-411) translate(326.00,309.00)" filter="url(#fltr1)">
            <g transform="translate(0.00,16.00)">
                <path d="M0.00,0.00 L92.00,0.00 L92.00,86.00 L0.00,86.00 z" style="fill:#000000; fill-rule:nonzero;fill-opacity:0.4; stroke:none;" />
            </g>
            <g transform="translate(92.00,0.00)">
                <path d="M0.00,16.32 L16.00,0.00 L16.00,85.68 L0.00,102.00 z" style="fill:#000000; fill-rule:nonzero;fill-opacity:0.4; stroke:none;" />
            </g>
            <g transform="translate(0.00,-0.00)">
                <path d="M15.66,0.00 L108.00,0.00 L92.34,16.00 L0.00,16.00 z" style="fill:#000000; fill-rule:nonzero;fill-opacity:0.4; stroke:none;" />
            </g>
            <g transform="translate(15.96,45.62) rotate(-90.00,4.75,12.77) translate(9.50,0) scale(-1,1) translate(0,25.53) scale(1,-1)">
                <path d="M6.27,0.00 L6.24,17.75 L9.47,17.82 L4.72,25.53 L-0.02,17.89 L3.24,17.89 L3.24,0.03 L6.27,0.00 z" style="fill:#000000; fill-rule:nonzero;fill-opacity:0.4; stroke:none;" />
            </g>
            <g transform="translate(66.37,45.78) rotate(90.00,4.92,12.77) translate(0,25.53) scale(1,-1)">
                <path d="M6.44,0.08 L6.52,17.98 L9.84,17.98 L4.88,25.53 L-0.01,17.89 L3.39,17.89 L3.39,0.03 L6.44,0.08 z" style="fill:#000000; fill-rule:nonzero;fill-opacity:0.4; stroke:none;" />
            </g>
            <g transform="translate(41.05,71.55) rotate(-180.00,4.82,12.77) translate(9.64,0) scale(-1,1) translate(0,25.53) scale(1,-1)">
                <path d="M6.48,0.00 L6.40,17.89 L9.64,17.93 L4.99,25.53 L0.00,17.89 L3.35,17.89 L3.35,0.03 L6.48,0.00 z" style="fill:#000000; fill-rule:nonzero;fill-opacity:0.4; stroke:none;" />
            </g>
            <g transform="translate(40.82,20.92) rotate(180.00,5.10,12.77) translate(10.20,0) scale(-1,1)">
                <path d="M7.03,0.13 L6.99,17.48 L10.22,17.48 L5.07,25.53 L0.02,17.48 L3.57,17.48 L3.59,0.03 L7.03,0.13 z" style="fill:#000000; fill-rule:nonzero;fill-opacity:0.4; stroke:none;" />
            </g>
            <g transform="translate(22.63,64.98) rotate(-140.00,5.18,12.76) translate(10.36,0) scale(-1,1) translate(0,25.52) scale(1,-1)">
                <path d="M6.64,0.06 L6.53,17.88 L10.09,17.86 L5.04,25.52 L-0.22,17.91 L3.55,17.89 L3.55,0.03 L6.64,0.06 z" style="fill:#000000; fill-rule:nonzero;fill-opacity:0.4; stroke:none;" />
            </g>
            <g transform="translate(59.72,27.29) rotate(-140.00,4.89,12.77)">
                <path d="M6.80,0.21 L6.47,18.02 L9.76,18.31 L4.93,25.53 L0.00,17.35 L3.26,17.74 L3.29,0.03 L6.80,0.21 z" style="fill:#000000; fill-rule:nonzero;fill-opacity:0.4; stroke:none;" />
            </g>
            <g transform="translate(22.56,27.49) rotate(140.00,4.99,12.73) translate(9.99,0) scale(-1,1)">
                <path d="M6.92,0.05 L6.67,17.81 L9.99,17.95 L5.16,25.46 L0.01,17.22 L3.60,17.54 L3.68,-0.03 L6.92,0.05 z" style="fill:#000000; fill-rule:nonzero;fill-opacity:0.4; stroke:none;" />
            </g>
            <g transform="translate(60.05,63.45) rotate(-50.00,4.99,12.76)">
                <path d="M6.75,0.00 L6.87,17.74 L10.01,18.08 L5.00,25.55 L0.08,17.71 L3.59,17.62 L3.51,0.04 L6.75,0.00 z" style="fill:#000000; fill-rule:nonzero;fill-opacity:0.4; stroke:none;" />
            </g>
            <g transform="translate(27.14,40.03)">
                <path d="M0.00,19.07 C0.00,8.54 8.43,0.00 18.82,0.00 C29.22,0.00 37.64,8.54 37.64,19.07 C37.64,29.60 29.22,38.13 18.82,38.13 C8.43,38.13 0.00,29.60 0.00,19.07 z" style="fill:#000000; fill-rule:nonzero;fill-opacity:0.4; stroke:none;" />
            </g>
        </g>
        <g id="182" transform="translate(326.00,309.00)">
            <g id="183" transform="translate(0.00,16.00)">
                <path d="M0.00,0.00 L92.00,0.00 L92.00,86.00 L0.00,86.00 z" class="st2" />
            </g>
            <g id="184" transform="translate(92.00,0.00)">
                <path d="M0.00,16.32 L16.00,0.00 L16.00,85.68 L0.00,102.00 z" class="st3" />
            </g>
            <g id="185" transform="translate(0.00,-0.00)">
                <path d="M15.66,0.00 L108.00,0.00 L92.34,16.00 L0.00,16.00 z" class="st4" />
            </g>
            <g id="186" transform="translate(15.96,45.62) rotate(-90.00,4.75,12.77) translate(9.50,0) scale(-1,1) translate(0,25.53) scale(1,-1)">
                <path d="M6.27,0.00 L6.24,17.75 L9.47,17.82 L4.72,25.53 L-0.02,17.89 L3.24,17.89 L3.24,0.03 L6.27,0.00 z" class="st5" />
            </g>
            <g id="187" transform="translate(66.37,45.78) rotate(90.00,4.92,12.77) translate(0,25.53) scale(1,-1)">
                <path d="M6.44,0.08 L6.52,17.98 L9.84,17.98 L4.88,25.53 L-0.01,17.89 L3.39,17.89 L3.39,0.03 L6.44,0.08 z" class="st5" />
            </g>
            <g id="188" transform="translate(41.05,71.55) rotate(-180.00,4.82,12.77) translate(9.64,0) scale(-1,1) translate(0,25.53) scale(1,-1)">
                <path d="M6.48,0.00 L6.40,17.89 L9.64,17.93 L4.99,25.53 L0.00,17.89 L3.35,17.89 L3.35,0.03 L6.48,0.00 z" class="st5" />
            </g>
            <g id="189" transform="translate(40.82,20.92) rotate(180.00,5.10,12.77) translate(10.20,0) scale(-1,1)">
                <path d="M7.03,0.13 L6.99,17.48 L10.22,17.48 L5.07,25.53 L0.02,17.48 L3.57,17.48 L3.59,0.03 L7.03,0.13 z" class="st5" />
            </g>
            <g id="190" transform="translate(22.63,64.98) rotate(-140.00,5.18,12.76) translate(10.36,0) scale(-1,1) translate(0,25.52) scale(1,-1)">
                <path d="M6.64,0.06 L6.53,17.88 L10.09,17.86 L5.04,25.52 L-0.22,17.91 L3.55,17.89 L3.55,0.03 L6.64,0.06 z" class="st5" />
            </g>
            <g id="191" transform="translate(59.72,27.29) rotate(-140.00,4.89,12.77)">
                <path d="M6.80,0.21 L6.47,18.02 L9.76,18.31 L4.93,25.53 L0.00,17.35 L3.26,17.74 L3.29,0.03 L6.80,0.21 z" class="st5" />
            </g>
            <g id="192" transform="translate(22.56,27.49) rotate(140.00,4.99,12.73) translate(9.99,0) scale(-1,1)">
                <path d="M6.92,0.05 L6.67,17.81 L9.99,17.95 L5.16,25.46 L0.01,17.22 L3.60,17.54 L3.68,-0.03 L6.92,0.05 z" class="st5" />
            </g>
            <g id="193" transform="translate(60.05,63.45) rotate(-50.00,4.99,12.76)">
                <path d="M6.75,0.00 L6.87,17.74 L10.01,18.08 L5.00,25.55 L0.08,17.71 L3.59,17.62 L3.51,0.04 L6.75,0.00 z" class="st5" />
            </g>
            <g id="194" transform="translate(27.14,40.03)">
                <path d="M0.00,19.07 C0.00,8.54 8.43,0.00 18.82,0.00 C29.22,0.00 37.64,8.54 37.64,19.07 C37.64,29.60 29.22,38.13 18.82,38.13 C8.43,38.13 0.00,29.60 0.00,19.07 z" class="st6" />
            </g>
        </g>
    </g>
</svg>
