<?xml version="1.0" encoding="utf-8" standalone="no" ?>
<!--Generated by Edraw, SVGExporter, v1.0-->
<svg version="1.1" xmlns="http://www.w3.org/2000/svg" xmlns:xlink="http://www.w3.org/1999/xlink" xmlns:ed="http://www.edrawsoft.com/schema/svg" ed:version="version 5" viewBox="0 0 1188 840">
    <style type="text/css">
        <![CDATA[
            .st1 {fill:#A79D82;stroke:none; stroke-width:0.390625; }
            .st2 {fill:#5C69A0;stroke:none; stroke-width:0.292969; }
            .st3 {fill:#1F396C;stroke:none; stroke-width:0.292969; }
            .st4 {fill:#003366;stroke:none; stroke-width:0.625; }
            .st5 {fill:#FFFFFF;stroke:none; stroke-width:0.625; }
            .st6 {fill:#FFFFFF;stroke:none; stroke-width:0.114441; }
            .st7 {fill:#FFFFFF;stroke:none; stroke-width:0.390625; }
            .st8 {fill:#5C69A0;stroke:none; stroke-width:0.390625; }
            .st9 {fill:url(#grad1);stroke:none; stroke-width:0.292969; }
        ]]>

    </style>
    <defs id="Gradients">
        <linearGradient id="grad1" gradientUnits="userSpaceOnUse" x1="0.00" y1="0.00" x2="0.00" y2="14.00">
            <stop offset="0.00" stop-color="#5C69A0" stop-opacity="1.00" />
            <stop offset="1.00" stop-color="#9CA7CE" stop-opacity="1.00" />
        </linearGradient>
    </defs>
    <defs id="Markers" />
    <defs id="Filters" />
    <g>
        <title>Layer-1</title>
        <g id="371" transform="translate(320.00,270.00)">
            <g id="372" transform="translate(4.38,5.40)">
                <path d="M87.10,0.00 L100.54,0.00 L100.54,122.50 L88.84,133.09 L0.00,133.09 L0.00,124.01 L87.10,0.00 z" class="st1" />
            </g>
            <g id="373" transform="translate(-0.12,3.29)">
                <path d="M0.00,9.14 L23.48,0.00 L86.94,7.75 L86.94,130.42 L0.23,130.42 L0.00,9.14 z" class="st2" />
            </g>
            <g id="374" transform="translate(86.38,0.45)">
                <path d="M-0.01,7.76 L11.96,0.00 L12.03,123.57 L0.41,133.32 L-0.01,7.76 z" class="st3" />
            </g>
            <g id="375" transform="translate(0.30,44.83)">
                <path d="M-0.09,0.13 L86.87,0.00 L86.87,2.39 L-0.09,2.36 L-0.09,0.13 z" class="st4" />
            </g>
            <g id="376" transform="translate(11.62,17.86)">
                <g id="377" transform="translate(0.38,0.48)">
                    <path d="M0.00,0.00 L14.94,0.00 L14.94,5.97 L0.00,5.97 L0.00,0.00 z" class="st5" />
                </g>
                <g id="378" transform="translate(0.11,17.37)">
                    <path d="M0.00,0.00 L14.94,0.00 L14.94,5.97 L0.00,5.97 L0.00,0.00 z" class="st5" />
                </g>
                <g id="379" transform="translate(47.39,16.87)">
                    <path d="M0.00,0.00 L14.94,0.00 L14.94,5.97 L0.00,5.97 L0.00,0.00 z" class="st5" />
                </g>
                <g id="380" transform="translate(47.93,0.26)">
                    <path d="M0.00,0.00 L14.94,0.00 L14.94,5.97 L0.00,5.97 L0.00,0.00 z" class="st5" />
                </g>
                <g id="381" transform="translate(13.15,3.00)">
                    <path d="M0.00,0.00 L40.89,0.00 L40.89,1.26 L0.00,1.26 L0.00,0.00 z" class="st5" />
                </g>
                <g id="382" transform="translate(12.95,19.73)">
                    <path d="M0.00,0.00 L40.89,0.00 L40.89,1.26 L0.00,1.26 L0.00,0.00 z" class="st5" />
                </g>
                <g id="383" transform="translate(13.22,3.38)">
                    <path d="M0.07,14.72 L40.01,0.13 L39.73,1.64 L0.61,15.97 L0.07,14.72 z" class="st5" />
                </g>
                <g id="384" transform="translate(13.42,4.89) translate(0,15.85) scale(1,-1)">
                    <path d="M0.07,14.72 L40.01,0.13 L39.73,1.64 L0.61,15.97 L0.07,14.72 z" class="st5" />
                </g>
            </g>
            <g id="385" transform="translate(12.75,77.42) rotate(-90.00,4.69,12.80) translate(9.38,0) scale(-1,1) translate(0,25.59) scale(1,-1)">
                <path d="M6.20,0.00 L6.22,17.93 L9.34,17.83 L4.65,25.59 L-0.04,17.86 L3.16,17.93 L3.16,0.03 L6.20,0.00 z" class="st6" />
            </g>
            <g id="386" transform="translate(63.41,77.44) rotate(90.00,4.74,12.80) translate(0,25.59) scale(1,-1)">
                <path d="M6.39,0.08 L6.34,17.93 L9.47,17.93 L4.82,25.59 L0.00,17.93 L3.32,17.93 L3.32,0.03 L6.39,0.08 z" class="st6" />
            </g>
            <g id="387" transform="translate(37.64,103.39) rotate(-180.00,4.98,12.80) translate(9.96,0) scale(-1,1) translate(0,25.59) scale(1,-1)">
                <path d="M6.69,0.00 L6.69,17.93 L9.93,17.97 L5.05,25.59 L-0.04,17.93 L3.56,17.93 L3.56,0.03 L6.69,0.00 z" class="st6" />
            </g>
            <g id="388" transform="translate(37.83,52.65) rotate(180.00,5.01,12.76) translate(10.01,0) scale(-1,1)">
                <path d="M6.81,0.06 L6.85,17.45 L10.03,17.45 L4.53,25.52 L0.02,17.45 L3.35,17.45 L3.36,-0.04 L6.81,0.06 z" class="st6" />
            </g>
            <g id="389" transform="translate(19.89,96.98) rotate(-140.00,4.88,12.80) translate(9.77,0) scale(-1,1) translate(0,25.59) scale(1,-1)">
                <path d="M6.07,0.06 L6.15,18.20 L9.77,18.52 L4.46,25.59 L0.00,17.67 L2.97,17.93 L2.97,0.03 L6.07,0.06 z" class="st6" />
            </g>
            <g id="390" transform="translate(56.27,59.09) rotate(-140.00,5.25,12.76)">
                <path d="M7.24,0.14 L6.91,17.99 L10.45,18.30 L5.21,25.52 L0.03,17.39 L3.52,17.69 L3.72,-0.04 L7.24,0.14 z" class="st6" />
            </g>
            <g id="391" transform="translate(19.39,58.92) rotate(140.00,5.07,12.88) translate(10.13,0) scale(-1,1)">
                <path d="M6.76,0.12 L6.66,17.68 L10.13,17.99 L4.87,25.81 L-0.03,17.44 L3.39,17.40 L3.51,0.04 L6.76,0.12 z" class="st6" />
            </g>
            <g id="392" transform="translate(57.26,95.25) rotate(-50.00,4.64,12.80)">
                <path d="M6.37,0.00 L6.29,17.82 L9.26,17.87 L4.62,25.59 L0.05,17.83 L3.31,17.76 L3.13,0.04 L6.37,0.00 z" class="st6" />
            </g>
            <g id="393" transform="translate(22.29,70.13)">
                <path d="M0.00,20.85 C0.00,9.33 9.21,0.00 20.58,0.00 C31.94,0.00 41.15,9.33 41.15,20.85 C41.15,32.36 31.94,41.69 20.58,41.69 C9.21,41.69 0.00,32.36 0.00,20.85 z" class="st7" />
            </g>
            <g id="394" transform="translate(87.04,34.36)">
                <path d="M0.00,10.62 L11.41,0.00 L11.06,2.56 L0.14,13.13 L0.00,10.62 z" class="st8" />
            </g>
            <g id="395" transform="translate(-0.03,0.29)">
                <path d="M14.74,0.12 L98.34,0.00 L86.44,12.53 L0.00,12.14 L14.74,0.12 z" class="st9" />
            </g>
        </g>
    </g>
</svg>
