<?xml version="1.0" encoding="utf-8" standalone="no" ?>
<!--Generated by Edraw, SVGExporter, v1.0-->
<svg version="1.1" xmlns="http://www.w3.org/2000/svg" xmlns:xlink="http://www.w3.org/1999/xlink" xmlns:ed="http://www.edrawsoft.com/schema/svg" ed:version="version 5" viewBox="0 0 1188 840">
    <style type="text/css">
        <![CDATA[
            .st1 {fill:#A79D82;stroke:none; stroke-width:0.625; }
            .st2 {fill:url(#grad1);stroke:none; stroke-width:0.625; }
            .st3 {fill:url(#grad2);stroke:none; stroke-width:0.625; }
            .st4 {fill:#16353D;stroke:none; stroke-width:0.625; }
            .st5 {fill:#FFFFFF;stroke:none; stroke-width:0.625; }
        ]]>

    </style>
    <defs id="Gradients">
        <linearGradient id="grad1" gradientUnits="userSpaceOnUse" x1="0.00" y1="-1.00" x2="133.00" y2="-1.00">
            <stop offset="0.00" stop-color="#0B474F" stop-opacity="1.00" />
            <stop offset="0.50" stop-color="#CCE0E0" stop-opacity="1.00" />
            <stop offset="1.00" stop-color="#0B474F" stop-opacity="1.00" />
        </linearGradient>
        <linearGradient id="grad2" gradientUnits="userSpaceOnUse" x1="0.00" y1="0.00" x2="133.00" y2="0.00">
            <stop offset="0.00" stop-color="#C0D4D4" stop-opacity="1.00" />
            <stop offset="1.00" stop-color="#0A424A" stop-opacity="1.00" />
        </linearGradient>
    </defs>
    <defs id="Markers" />
    <defs id="Filters" />
    <g>
        <title>Layer-1</title>
        <g id="159" transform="translate(360.00,282.50)">
            <g id="160" transform="translate(5.02,14.91)">
                <g id="161" transform="translate(0.71,25.71)">
                    <path d="M0.00,31.68 C0.00,25.96 0.42,0.58 0.42,0.58 C0.42,0.58 47.22,10.35 65.98,10.35 C89.44,10.35 132.21,-0.17 132.21,-0.17 C132.21,-0.17 132.21,27.48 132.21,31.68 C132.21,43.47 102.64,56.93 66.15,56.93 C29.66,56.93 0.00,43.47 0.00,31.68 z" class="st1" />
                </g>
                <g id="162" transform="translate(0.07,0.00)">
                    <path d="M0.00,25.54 C0.00,11.44 29.75,0.00 66.45,0.00 C103.15,0.00 132.90,11.44 132.90,25.54 C132.90,39.65 103.15,51.09 66.45,51.09 C29.75,51.09 0.00,39.65 0.00,25.54 z" class="st1" />
                </g>
            </g>
            <g id="163" transform="translate(-0.07,26.55)">
                <path d="M0.00,41.24 C0.00,34.68 0.34,-0.25 0.34,-0.25 C0.34,-0.25 47.10,16.76 65.83,16.76 C89.23,16.76 131.95,0.00 131.95,0.00 C131.95,0.00 131.95,36.42 131.95,41.24 C131.95,54.76 102.23,65.62 65.83,65.62 C29.42,65.62 0.00,54.76 0.00,41.24 z" class="st2" />
            </g>
            <g id="164" transform="translate(0.07,-0.12)">
                <path d="M0.00,26.89 C0.00,12.04 29.52,0.00 65.94,0.00 C102.35,0.00 131.87,12.04 131.87,26.89 C131.87,41.75 102.35,53.79 65.94,53.79 C29.52,53.79 0.00,41.75 0.00,26.89 z" class="st3" />
            </g>
            <g id="165" transform="translate(6.08,5.43)">
                <g id="166" transform="translate(32.61,25.90)">
                    <path d="M16.05,-0.04 L25.60,1.57 L14.52,12.37 L20.87,14.08 L-0.18,18.19 L-0.54,8.54 L5.14,9.75 L16.05,-0.04 z" class="st4" />
                </g>
                <g id="167" transform="translate(32.24,27.50)">
                    <path d="M17.24,-0.04 L25.04,0.89 L14.35,11.35 L15.33,13.53 L0.50,17.18 L0.00,8.67 L6.33,10.37 L17.24,-0.04 z" class="st5" />
                </g>
                <g id="168" transform="translate(59.63,0.26) translate(26.25,0) scale(-1,1) translate(0,17.99) scale(1,-1)">
                    <path d="M17.90,0.06 L26.21,2.70 L16.27,11.50 L21.72,12.57 L0.10,18.11 L1.37,9.55 L7.69,10.04 L17.90,0.06 z" class="st4" />
                </g>
                <g id="169" transform="translate(62.10,1.66) translate(23.09,0) scale(-1,1) translate(0,16.53) scale(1,-1)">
                    <path d="M17.21,0.00 L23.04,2.20 L15.02,9.73 L17.45,11.44 L-0.05,16.50 L0.68,7.55 L6.75,8.76 L17.21,0.00 z" class="st5" />
                </g>
                <g id="170" transform="translate(0.87,9.81) translate(48.22,0) scale(-1,1)">
                    <path d="M43.42,-0.10 L49.18,5.75 L18.62,11.18 L22.37,14.71 L0.97,10.17 L8.12,1.91 L11.49,4.61 L43.42,-0.10 z" class="st4" />
                </g>
                <g id="171" transform="translate(2.34,11.82) translate(43.63,0) scale(-1,1)">
                    <path d="M39.72,0.04 L43.87,3.93 L14.93,9.04 L15.17,11.71 L0.00,8.88 L5.53,1.82 L7.62,4.96 L39.72,0.04 z" class="st5" />
                </g>
                <g id="172" transform="translate(68.33,19.23)">
                    <path d="M47.89,8.94 L42.20,14.27 L9.63,7.22 L4.30,12.42 L0.00,3.49 L20.27,-0.12 L17.50,2.60 L47.89,8.94 z" class="st4" />
                </g>
                <g id="173" transform="translate(69.05,21.41)">
                    <path d="M45.86,8.20 L41.48,12.09 L8.90,5.77 L3.58,10.88 L0.00,2.68 L17.41,-0.07 L16.20,2.37 L45.86,8.20 z" class="st5" />
                </g>
            </g>
        </g>
    </g>
</svg>
