<?xml version="1.0" encoding="utf-8" standalone="no" ?>
<!--Generated by Edraw, SVGExporter, v1.0-->
<svg version="1.1" xmlns="http://www.w3.org/2000/svg" xmlns:xlink="http://www.w3.org/1999/xlink" xmlns:ed="http://www.edrawsoft.com/schema/svg" ed:version="version 5" viewBox="0 0 1188 840">
    <style type="text/css">
        <![CDATA[
            .st1 {fill:none;stroke:#3C5C74; stroke-width:1; stroke-linejoin:bevel; }
            .st2 {fill:#285A61;stroke:none; stroke-width:0.625; }
            .st3 {fill:url(#grad1);}
            .st4 {fill:none;stroke:#1F525A; stroke-width:1; stroke-linejoin:bevel; }
            .st5 {fill:url(#grad1);stroke:#1F525A; stroke-width:1; stroke-linejoin:bevel; }
            .st6 {fill:url(#grad2);stroke:none; stroke-width:0.625; }
            .st7 {fill:url(#grad3);stroke:none; stroke-width:0.625; }
            .st8 {fill:#16353D;stroke:none; stroke-width:0.625; }
            .st9 {fill:#FFFFFF;stroke:none; stroke-width:0.625; }
        ]]>

    </style>
    <defs id="Gradients">
        <linearGradient id="grad1" gradientUnits="userSpaceOnUse" x1="0.00" y1="0.00" x2="0.00" y2="1.00">
            <stop offset="0.00" stop-color="#DCE6F2" stop-opacity="1.00" />
            <stop offset="0.50" stop-color="#B9CDE5" stop-opacity="1.00" />
            <stop offset="1.00" stop-color="#95B3D7" stop-opacity="1.00" />
        </linearGradient>
        <linearGradient id="grad2" gradientUnits="userSpaceOnUse" x1="0.00" y1="-1.00" x2="133.00" y2="-1.00">
            <stop offset="0.00" stop-color="#0B474F" stop-opacity="1.00" />
            <stop offset="0.50" stop-color="#CCE0E0" stop-opacity="1.00" />
            <stop offset="1.00" stop-color="#0B474F" stop-opacity="1.00" />
        </linearGradient>
        <linearGradient id="grad3" gradientUnits="userSpaceOnUse" x1="0.00" y1="0.00" x2="133.00" y2="0.00">
            <stop offset="0.00" stop-color="#C0D4D4" stop-opacity="1.00" />
            <stop offset="1.00" stop-color="#0A424A" stop-opacity="1.00" />
        </linearGradient>
    </defs>
    <defs id="Markers" />
    <defs id="Filters">
        <filter id="fltr1">
            <feGaussianBlur in="SourceAlpha" stdDeviation="3" result="blur" />
        </filter>
    </defs>
    <g>
        <title>Layer-1</title>
        <g ed:type="shadow" transform="translate(396,394) translate(-394,-392) translate(328.00,272.00)" filter="url(#fltr1)">
            <g transform="translate(22.66,0.50)">
                <path d="M0.00,0.00 L0.00,8.82 L6.74,8.82 L6.74,0.00 L0.00,0.00 z" style="fill:#000000; fill-rule:nonzero;fill-opacity:0.4; stroke:none;" />
            </g>
            <g transform="translate(26.37,9.57)" />
            <g transform="translate(22.66,15.62)">
                <path d="M0.00,0.00 L0.00,20.16 L6.74,20.16 L6.74,0.00 L0.00,0.00 z" style="fill:#000000; fill-rule:nonzero;fill-opacity:0.4; stroke:none;" />
            </g>
            <g transform="translate(104.66,-0.00)">
                <path d="M0.00,0.00 L0.00,8.82 L6.74,8.82 L6.74,0.00 L0.00,0.00 z" style="fill:#000000; fill-rule:nonzero;fill-opacity:0.4; stroke:none;" />
            </g>
            <g transform="translate(108.37,9.07)" />
            <g transform="translate(104.66,15.12)">
                <path d="M0.00,0.00 L0.00,20.16 L6.74,20.16 L6.74,0.00 L0.00,0.00 z" style="fill:#000000; fill-rule:nonzero;fill-opacity:0.4; stroke:none;" />
            </g>
            <g transform="translate(0.00,54.56)">
                <path d="M0.00,41.09 C0.00,34.55 0.34,-0.25 0.34,-0.25 C0.34,-0.25 47.12,16.70 65.85,16.70 C89.27,16.70 132.00,0.00 132.00,0.00 C132.00,0.00 132.00,36.28 132.00,41.09 C132.00,54.57 102.28,65.38 65.85,65.38 C29.43,65.38 0.00,54.57 0.00,41.09 z" style="fill:#000000; fill-rule:nonzero;fill-opacity:0.4; stroke:none;" />
            </g>
            <g transform="translate(0.00,27.98)">
                <path d="M0.00,26.80 C0.00,12.00 29.55,0.00 66.00,0.00 C102.45,0.00 132.00,12.00 132.00,26.80 C132.00,41.59 102.45,53.59 66.00,53.59 C29.55,53.59 0.00,41.59 0.00,26.80 z" style="fill:#000000; fill-rule:nonzero;fill-opacity:0.4; stroke:none;" />
            </g>
            <g transform="translate(6.11,33.51)">
                <g transform="translate(32.61,25.81)">
                    <path d="M16.05,-0.04 L25.60,1.57 L14.52,12.32 L20.87,14.03 L-0.18,18.12 L-0.54,8.51 L5.14,9.72 L16.05,-0.04 z" style="fill:#000000; fill-rule:nonzero;fill-opacity:0.4; stroke:none;" />
                </g>
                <g transform="translate(32.24,27.40)">
                    <path d="M17.24,-0.04 L25.04,0.89 L14.35,11.30 L15.33,13.48 L0.50,17.12 L0.00,8.64 L6.33,10.33 L17.24,-0.04 z" style="fill:#000000; fill-rule:nonzero;fill-opacity:0.4; stroke:none;" />
                </g>
                <g transform="translate(59.63,0.26) translate(26.25,0) scale(-1,1) translate(0,17.92) scale(1,-1)">
                    <path d="M17.90,0.06 L26.21,2.69 L16.27,11.46 L21.72,12.53 L0.10,18.04 L1.37,9.52 L7.69,10.00 L17.90,0.06 z" style="fill:#000000; fill-rule:nonzero;fill-opacity:0.4; stroke:none;" />
                </g>
                <g transform="translate(62.10,1.66) translate(23.09,0) scale(-1,1) translate(0,16.47) scale(1,-1)">
                    <path d="M17.21,0.00 L23.04,2.19 L15.02,9.70 L17.45,11.40 L-0.05,16.44 L0.68,7.52 L6.75,8.73 L17.21,0.00 z" style="fill:#000000; fill-rule:nonzero;fill-opacity:0.4; stroke:none;" />
                </g>
                <g transform="translate(0.87,9.77) translate(48.22,0) scale(-1,1)">
                    <path d="M43.42,-0.10 L49.18,5.73 L18.62,11.14 L22.37,14.66 L0.97,10.13 L8.12,1.91 L11.49,4.60 L43.42,-0.10 z" style="fill:#000000; fill-rule:nonzero;fill-opacity:0.4; stroke:none;" />
                </g>
                <g transform="translate(2.34,11.78) translate(43.63,0) scale(-1,1)">
                    <path d="M39.72,0.04 L43.87,3.92 L14.93,9.01 L15.17,11.67 L0.00,8.84 L5.53,1.82 L7.62,4.94 L39.72,0.04 z" style="fill:#000000; fill-rule:nonzero;fill-opacity:0.4; stroke:none;" />
                </g>
                <g transform="translate(68.33,19.16)">
                    <path d="M47.89,8.91 L42.20,14.22 L9.63,7.19 L4.30,12.38 L0.00,3.48 L20.27,-0.11 L17.50,2.59 L47.89,8.91 z" style="fill:#000000; fill-rule:nonzero;fill-opacity:0.4; stroke:none;" />
                </g>
                <g transform="translate(69.05,21.33)">
                    <path d="M45.86,8.17 L41.48,12.05 L8.90,5.75 L3.58,10.84 L0.00,2.67 L17.41,-0.07 L16.20,2.36 L45.86,8.17 z" style="fill:#000000; fill-rule:nonzero;fill-opacity:0.4; stroke:none;" />
                </g>
            </g>
        </g>
        <g id="340" transform="translate(328.00,272.00)">
            <g id="341" transform="translate(22.66,0.50)">
                <path d="M0.00,0.00 L0.00,8.82 L6.74,8.82 L6.74,0.00 L0.00,0.00 z" class="st2" />
            </g>
            <g id="342" transform="translate(26.37,9.57)">
                <path d="M-0.00,0.00 L-0.00,6.80 " class="st4" />
            </g>
            <g id="343" transform="translate(22.66,15.62)">
                <path d="M0.00,0.00 L0.00,20.16 L6.74,20.16 L6.74,0.00 L0.00,0.00 z" class="st2" />
            </g>
            <g id="344" transform="translate(104.66,-0.00)">
                <path d="M0.00,0.00 L0.00,8.82 L6.74,8.82 L6.74,0.00 L0.00,0.00 z" class="st2" />
            </g>
            <g id="345" transform="translate(108.37,9.07)">
                <path d="M-0.00,0.00 L-0.00,6.80 " class="st4" />
            </g>
            <g id="346" transform="translate(104.66,15.12)">
                <path d="M0.00,0.00 L0.00,20.16 L6.74,20.16 L6.74,0.00 L0.00,0.00 z" class="st2" />
            </g>
            <g id="347" transform="translate(0.00,54.56)">
                <path d="M0.00,41.09 C0.00,34.55 0.34,-0.25 0.34,-0.25 C0.34,-0.25 47.12,16.70 65.85,16.70 C89.27,16.70 132.00,0.00 132.00,0.00 C132.00,0.00 132.00,36.28 132.00,41.09 C132.00,54.57 102.28,65.38 65.85,65.38 C29.43,65.38 0.00,54.57 0.00,41.09 z" class="st6" />
            </g>
            <g id="348" transform="translate(0.00,27.98)">
                <path d="M0.00,26.80 C0.00,12.00 29.55,0.00 66.00,0.00 C102.45,0.00 132.00,12.00 132.00,26.80 C132.00,41.59 102.45,53.59 66.00,53.59 C29.55,53.59 0.00,41.59 0.00,26.80 z" class="st7" />
            </g>
            <g id="349" transform="translate(6.11,33.51)">
                <g id="350" transform="translate(32.61,25.81)">
                    <path d="M16.05,-0.04 L25.60,1.57 L14.52,12.32 L20.87,14.03 L-0.18,18.12 L-0.54,8.51 L5.14,9.72 L16.05,-0.04 z" class="st8" />
                </g>
                <g id="351" transform="translate(32.24,27.40)">
                    <path d="M17.24,-0.04 L25.04,0.89 L14.35,11.30 L15.33,13.48 L0.50,17.12 L0.00,8.64 L6.33,10.33 L17.24,-0.04 z" class="st9" />
                </g>
                <g id="352" transform="translate(59.63,0.26) translate(26.25,0) scale(-1,1) translate(0,17.92) scale(1,-1)">
                    <path d="M17.90,0.06 L26.21,2.69 L16.27,11.46 L21.72,12.53 L0.10,18.04 L1.37,9.52 L7.69,10.00 L17.90,0.06 z" class="st8" />
                </g>
                <g id="353" transform="translate(62.10,1.66) translate(23.09,0) scale(-1,1) translate(0,16.47) scale(1,-1)">
                    <path d="M17.21,0.00 L23.04,2.19 L15.02,9.70 L17.45,11.40 L-0.05,16.44 L0.68,7.52 L6.75,8.73 L17.21,0.00 z" class="st9" />
                </g>
                <g id="354" transform="translate(0.87,9.77) translate(48.22,0) scale(-1,1)">
                    <path d="M43.42,-0.10 L49.18,5.73 L18.62,11.14 L22.37,14.66 L0.97,10.13 L8.12,1.91 L11.49,4.60 L43.42,-0.10 z" class="st8" />
                </g>
                <g id="355" transform="translate(2.34,11.78) translate(43.63,0) scale(-1,1)">
                    <path d="M39.72,0.04 L43.87,3.92 L14.93,9.01 L15.17,11.67 L0.00,8.84 L5.53,1.82 L7.62,4.94 L39.72,0.04 z" class="st9" />
                </g>
                <g id="356" transform="translate(68.33,19.16)">
                    <path d="M47.89,8.91 L42.20,14.22 L9.63,7.19 L4.30,12.38 L0.00,3.48 L20.27,-0.11 L17.50,2.59 L47.89,8.91 z" class="st8" />
                </g>
                <g id="357" transform="translate(69.05,21.33)">
                    <path d="M45.86,8.17 L41.48,12.05 L8.90,5.75 L3.58,10.84 L0.00,2.67 L17.41,-0.07 L16.20,2.36 L45.86,8.17 z" class="st9" />
                </g>
            </g>
        </g>
    </g>
</svg>
