<?xml version="1.0" encoding="utf-8" standalone="no" ?>
<!--Generated by Edraw, SVGExporter, v1.0-->
<svg version="1.1" xmlns="http://www.w3.org/2000/svg" xmlns:xlink="http://www.w3.org/1999/xlink" xmlns:ed="http://www.edrawsoft.com/schema/svg" ed:version="version 5" viewBox="0 0 1188 840">
    <style type="text/css">
        <![CDATA[
            .st1 {fill:#A79D82;stroke:none; stroke-width:0.625; }
            .st2 {fill:url(#grad1);stroke:none; stroke-width:0.625; }
            .st3 {fill:#0B474F;stroke:none; stroke-width:0.625; }
            .st4 {fill:#FFFFFF;stroke:none; stroke-width:0.625; }
            .st5 {fill:url(#grad2);stroke:none; stroke-width:0.625; }
            .st6 {fill:url(#grad3);stroke:none; stroke-width:0.625; }
            .st7 {fill:#1C424C;stroke:none; stroke-width:0.625; }
        ]]>

    </style>
    <defs id="Gradients">
        <linearGradient id="grad1" gradientUnits="userSpaceOnUse" x1="0.00" y1="0.00" x2="167.00" y2="0.00">
            <stop offset="0.00" stop-color="#0B474F" stop-opacity="1.00" />
            <stop offset="0.50" stop-color="#CCE0E0" stop-opacity="1.00" />
            <stop offset="1.00" stop-color="#0B474F" stop-opacity="1.00" />
        </linearGradient>
        <linearGradient id="grad2" gradientUnits="userSpaceOnUse" x1="0.00" y1="-1.00" x2="167.00" y2="-1.00">
            <stop offset="0.00" stop-color="#0B474F" stop-opacity="1.00" />
            <stop offset="0.50" stop-color="#CCE0E0" stop-opacity="1.00" />
            <stop offset="1.00" stop-color="#0B474F" stop-opacity="1.00" />
        </linearGradient>
        <linearGradient id="grad3" gradientUnits="userSpaceOnUse" x1="0.00" y1="0.00" x2="167.00" y2="0.00">
            <stop offset="0.00" stop-color="#0B474F" stop-opacity="1.00" />
            <stop offset="0.50" stop-color="#C0D4D4" stop-opacity="1.00" />
            <stop offset="1.00" stop-color="#0B474F" stop-opacity="1.00" />
        </linearGradient>
    </defs>
    <defs id="Markers" />
    <defs id="Filters" />
    <g>
        <title>Layer-1</title>
        <g id="103" transform="translate(319.17,292.00)">
            <g id="104" transform="translate(10.06,39.23)">
                <path d="M0.00,78.96 C0.00,70.90 0.00,0.41 0.00,0.41 C0.00,0.41 59.01,48.89 82.47,48.89 C111.79,48.89 165.24,-0.23 165.24,-0.23 C165.24,-0.23 165.24,73.03 165.24,78.96 C165.24,95.57 128.08,109.00 82.47,109.00 C36.86,109.00 0.00,95.57 0.00,78.96 z" class="st1" />
            </g>
            <g id="105" transform="translate(9.95,7.30)">
                <path d="M0.00,33.03 C0.00,14.79 36.98,0.00 82.60,0.00 C128.22,0.00 165.20,14.79 165.20,33.03 C165.20,51.28 128.22,66.06 82.60,66.06 C36.98,66.06 0.00,51.28 0.00,33.03 z" class="st1" />
            </g>
            <g id="106" transform="translate(0.45,58.40)">
                <path d="M0.00,53.65 C0.00,45.58 0.00,0.64 0.00,0.64 C0.00,0.64 59.01,23.58 82.47,23.58 C111.79,23.58 165.05,0.00 165.05,0.00 C165.05,0.00 165.30,47.72 165.30,53.65 C165.30,70.25 128.08,83.64 82.47,83.64 C36.86,83.64 0.00,70.25 0.00,53.65 z" class="st2" />
            </g>
            <g id="107" transform="translate(0.56,27.36)">
                <path d="M0.00,35.25 C0.00,17.01 36.92,0.00 82.54,0.00 C128.16,0.00 165.08,16.38 165.08,34.62 C165.08,52.86 128.16,66.09 82.54,66.09 C36.92,66.09 0.00,53.50 0.00,35.25 z" class="st3" />
            </g>
            <g id="108" transform="translate(-0.25,25.08)">
                <path d="M0.00,32.47 C0.00,14.23 37.50,-0.07 83.12,-0.07 C128.74,-0.07 165.73,14.71 165.73,32.96 C165.73,51.20 133.07,65.05 87.22,66.28 C34.09,66.00 -1.33,50.18 0.00,32.47 z" class="st4" />
            </g>
            <g id="109" transform="translate(0.48,32.92)">
                <path d="M0.00,25.75 C0.00,17.69 0.95,2.13 0.95,2.13 C0.95,2.13 59.06,17.26 82.51,17.26 C111.83,17.26 165.24,-0.12 165.24,-0.12 C165.24,-0.12 165.24,19.82 165.24,25.75 C165.24,42.36 128.08,55.79 82.47,55.79 C36.86,55.79 0.00,42.36 0.00,25.75 z" class="st5" />
            </g>
            <g id="110" transform="translate(1.43,1.40)">
                <path d="M0.00,33.03 C0.00,14.79 36.98,0.00 82.60,0.00 C128.22,0.00 165.20,14.79 165.20,33.03 C165.20,51.28 128.22,66.06 82.60,66.06 C36.98,66.06 0.00,51.28 0.00,33.03 z" class="st6" />
            </g>
            <g id="111" transform="translate(4.31,2.33)">
                <g id="112" transform="translate(23.36,39.36)">
                    <path d="M3.01,0.00 L24.78,2.79 L22.41,5.27 L0.16,2.48 L3.01,0.00 z" class="st3" />
                </g>
                <g id="113" transform="translate(144.11,25.11)">
                    <path d="M3.01,0.00 L15.31,0.31 L16.26,3.10 L0.16,2.48 L3.01,0.00 z" class="st3" />
                </g>
                <g id="114" transform="translate(126.12,42.46)">
                    <path d="M3.01,0.00 L19.73,2.17 L19.73,4.34 L0.16,2.48 L3.01,0.00 z" class="st3" />
                </g>
                <g id="115" transform="translate(89.18,51.76)">
                    <path d="M3.01,0.00 L25.10,2.79 L23.20,4.34 L0.16,2.48 L3.01,0.00 z" class="st3" />
                </g>
                <g id="116" transform="translate(96.76,22.01)">
                    <path d="M3.01,0.00 L25.41,2.79 L23.36,5.11 L0.16,2.48 L3.01,0.00 z" class="st3" />
                </g>
                <g id="117" transform="translate(75.29,40.60)">
                    <path d="M3.00,0.00 L26.04,2.17 L24.15,4.65 L0.16,2.48 L3.00,0.00 z" class="st3" />
                </g>
                <g id="118" transform="translate(40.25,48.66)">
                    <path d="M3.01,0.00 L24.78,2.79 L19.73,4.34 L0.16,2.48 L3.01,0.00 z" class="st3" />
                </g>
                <g id="119" transform="translate(69.92,2.79)">
                    <path d="M3.01,0.00 L26.36,1.24 L24.47,3.72 L0.16,2.48 L3.01,0.00 z" class="st3" />
                </g>
                <g id="120" transform="translate(33.30,9.92)">
                    <path d="M3.01,0.00 L25.10,3.10 L24.15,6.20 L0.16,2.48 L3.01,0.00 z" class="st3" />
                </g>
                <g id="121" transform="translate(11.84,28.83)">
                    <path d="M3.01,0.00 L26.99,1.55 L23.20,4.34 L0.16,2.48 L3.01,0.00 z" class="st3" />
                </g>
                <g id="122" transform="translate(3.00,19.22)">
                    <path d="M2.06,0.00 L21.62,1.24 L20.99,2.79 L-0.16,1.86 L2.06,0.00 z" class="st3" />
                </g>
                <g id="123" transform="translate(30.94,0.77)">
                    <path d="M68.04,0.00 L70.87,0.46 L2.21,55.95 L0.00,54.71 L68.04,0.00 z" class="st3" />
                </g>
                <g id="124" transform="translate(51.89,4.69)">
                    <path d="M67.09,0.00 L69.97,0.00 L2.72,56.72 L-0.12,55.48 L67.09,0.00 z" class="st3" />
                </g>
                <g id="125" transform="translate(9.36,-0.05)">
                    <path d="M64.57,0.00 L67.40,0.46 L2.95,52.07 L0.11,49.90 L64.57,0.00 z" class="st3" />
                </g>
                <g id="126" transform="translate(0.00,3.56)">
                    <path d="M42.15,0.00 L44.99,0.46 L1.26,37.66 L0.00,35.80 L42.15,0.00 z" class="st3" />
                </g>
                <g id="127" transform="translate(138.59,30.84)">
                    <path d="M21.32,0.00 L22.10,2.63 L4.42,20.30 L0.00,21.54 L21.32,0.00 z" class="st3" />
                </g>
                <g id="128" transform="translate(104.18,18.44)">
                    <path d="M49.41,0.00 L51.38,1.32 L3.79,41.69 L0.00,41.38 L49.41,0.00 z" class="st3" />
                </g>
                <g id="129" transform="translate(131.80,13.95)">
                    <path d="M3.01,0.00 L19.73,2.17 L21.78,4.49 L0.16,2.48 L3.01,0.00 z" class="st3" />
                </g>
                <g id="130" transform="translate(77.82,9.45)">
                    <path d="M60.46,0.00 L63.30,0.46 L1.42,52.54 L-0.16,51.30 L60.46,0.00 z" class="st3" />
                </g>
            </g>
            <g id="131" transform="translate(0.08,-0.00)">
                <g id="132" transform="translate(23.53,42.16)">
                    <path d="M3.03,0.00 L24.96,2.99 L22.57,5.64 L0.16,2.66 L3.03,0.00 z" class="st4" />
                </g>
                <g id="133" transform="translate(145.14,26.89)">
                    <path d="M3.03,0.00 L15.42,0.33 L16.37,3.32 L0.16,2.66 L3.03,0.00 z" class="st4" />
                </g>
                <g id="134" transform="translate(127.02,45.48)">
                    <path d="M3.03,0.00 L19.87,2.32 L19.87,4.65 L0.16,2.66 L3.03,0.00 z" class="st4" />
                </g>
                <g id="135" transform="translate(89.82,55.43)">
                    <path d="M3.03,0.00 L25.28,2.99 L23.37,4.65 L0.16,2.66 L3.03,0.00 z" class="st4" />
                </g>
                <g id="136" transform="translate(97.45,23.57)">
                    <path d="M3.03,0.00 L25.59,2.99 L23.53,5.48 L0.16,2.66 L3.03,0.00 z" class="st4" />
                </g>
                <g id="137" transform="translate(75.83,43.48)">
                    <path d="M3.02,0.00 L26.23,2.32 L24.32,4.98 L0.16,2.66 L3.02,0.00 z" class="st4" />
                </g>
                <g id="138" transform="translate(40.54,52.11)">
                    <path d="M3.03,0.00 L24.96,2.99 L19.87,4.65 L0.16,2.66 L3.03,0.00 z" class="st4" />
                </g>
                <g id="139" transform="translate(70.43,2.99)">
                    <path d="M3.03,0.00 L26.55,1.33 L24.64,3.98 L0.16,2.66 L3.03,0.00 z" class="st4" />
                </g>
                <g id="140" transform="translate(33.54,10.62)">
                    <path d="M3.03,0.00 L25.28,3.32 L24.32,6.64 L0.16,2.66 L3.03,0.00 z" class="st4" />
                </g>
                <g id="141" transform="translate(11.92,30.87)">
                    <path d="M3.03,0.00 L27.18,1.66 L23.37,4.65 L0.16,2.66 L3.03,0.00 z" class="st4" />
                </g>
                <g id="142" transform="translate(3.02,20.58)">
                    <path d="M2.08,0.00 L21.78,1.33 L21.14,2.99 L-0.16,1.99 L2.08,0.00 z" class="st4" />
                </g>
                <g id="143" transform="translate(31.16,-0.00)">
                    <path d="M72.47,0.00 L75.48,0.50 L2.35,60.75 L0.00,59.40 L72.47,0.00 z" class="st4" />
                </g>
                <g id="144" transform="translate(52.26,3.79)">
                    <path d="M72.20,0.00 L75.29,0.00 L2.93,61.97 L-0.13,60.62 L72.20,0.00 z" class="st4" />
                </g>
                <g id="145" transform="translate(13.84,0.00)">
                    <path d="M63.47,0.00 L66.26,0.46 L2.90,51.23 L0.11,49.10 L63.47,0.00 z" class="st4" />
                </g>
                <g id="146" transform="translate(0.00,3.79)">
                    <path d="M45.13,0.00 L48.16,0.50 L1.35,40.35 L0.00,38.36 L45.13,0.00 z" class="st4" />
                </g>
                <g id="147" transform="translate(139.58,33.03)">
                    <path d="M21.47,0.00 L22.26,2.82 L4.45,21.74 L0.00,23.07 L21.47,0.00 z" class="st4" />
                </g>
                <g id="148" transform="translate(101.12,19.75)">
                    <path d="M53.42,0.00 L55.55,1.47 L4.10,46.49 L0.00,46.14 L53.42,0.00 z" class="st4" />
                </g>
                <g id="149" transform="translate(132.74,14.94)">
                    <path d="M3.03,0.00 L19.87,2.32 L21.94,4.81 L0.16,2.66 L3.03,0.00 z" class="st4" />
                </g>
                <g id="150" transform="translate(78.37,10.12)">
                    <path d="M60.90,0.00 L63.75,0.50 L1.43,56.26 L-0.16,54.94 L60.90,0.00 z" class="st4" />
                </g>
            </g>
            <g id="151" transform="translate(54.32,38.81)">
                <path d="M19.36,-0.04 L30.87,1.90 L17.51,14.91 L25.17,16.98 L-0.22,21.93 L-0.65,10.30 L6.19,11.76 L19.36,-0.04 z" class="st7" />
            </g>
            <g id="152" transform="translate(53.84,41.29)">
                <path d="M20.86,-0.04 L29.97,1.72 L17.95,13.10 L18.90,15.95 L0.26,19.45 L-0.07,10.30 L7.70,11.76 L20.86,-0.04 z" class="st4" />
            </g>
            <g id="153" transform="translate(84.18,5.32) translate(31.84,0) scale(-1,1) translate(0,21.89) scale(1,-1)">
                <path d="M19.52,-0.06 L31.90,3.25 L19.92,13.87 L26.49,15.16 L0.42,21.84 L-0.04,9.45 L7.18,10.91 L19.52,-0.06 z" class="st7" />
            </g>
            <g id="154" transform="translate(86.76,7.62) translate(29.41,0) scale(-1,1) translate(0,19.61) scale(1,-1)">
                <path d="M18.76,-0.05 L29.51,2.56 L18.32,12.46 L20.06,14.57 L0.67,19.57 L0.11,9.46 L7.32,10.92 L18.76,-0.05 z" class="st4" />
            </g>
            <g id="155" transform="translate(17.58,13.70) translate(59.77,0) scale(-1,1)">
                <path d="M52.69,-0.12 L59.63,6.93 L22.78,13.48 L27.29,17.74 L-0.12,16.34 L10.11,2.31 L14.17,5.56 L52.69,-0.12 z" class="st7" />
            </g>
            <g id="156" transform="translate(19.37,15.66) translate(55.34,0) scale(-1,1)">
                <path d="M49.45,0.03 L55.42,5.84 L18.74,11.54 L20.32,15.33 L0.08,14.70 L8.62,3.00 L11.42,5.81 L49.45,0.03 z" class="st4" />
            </g>
            <g id="157" transform="translate(96.92,26.20)">
                <path d="M57.71,11.07 L49.49,18.86 L9.91,11.12 L5.19,15.27 L0.00,4.50 L24.44,0.15 L21.11,3.42 L57.71,11.07 z" class="st7" />
            </g>
            <g id="158" transform="translate(97.90,29.71)">
                <path d="M54.53,9.83 L48.51,15.36 L8.93,7.62 L4.21,11.77 L0.14,3.50 L20.13,-0.08 L18.93,2.38 L54.53,9.83 z" class="st4" />
            </g>
        </g>
    </g>
</svg>
